<?xml version="1.0" encoding="UTF-8" standalone="no"?>
<!-- Created with Inkscape (http://www.inkscape.org/) -->

<svg
   xmlns:dc="http://purl.org/dc/elements/1.1/"
   xmlns:cc="http://creativecommons.org/ns#"
   xmlns:rdf="http://www.w3.org/1999/02/22-rdf-syntax-ns#"
   xmlns:svg="http://www.w3.org/2000/svg"
   xmlns="http://www.w3.org/2000/svg"
   xmlns:sodipodi="http://sodipodi.sourceforge.net/DTD/sodipodi-0.dtd"
   xmlns:inkscape="http://www.inkscape.org/namespaces/inkscape"
   version="1.1"
   id="svg64"
   width="512"
   height="512"
   viewBox="0 0 512 512"
   sodipodi:docname="ac_max.svg"
   inkscape:version="0.92.5 (2060ec1f9f, 2020-04-08)">
  <metadata
     id="metadata70">
    <rdf:RDF>
      <cc:Work
         rdf:about="">
        <dc:format>image/svg+xml</dc:format>
        <dc:type
           rdf:resource="http://purl.org/dc/dcmitype/StillImage" />
        <dc:title></dc:title>
      </cc:Work>
    </rdf:RDF>
  </metadata>
  <defs
     id="defs68" />
  <sodipodi:namedview
     pagecolor="#ffffff"
     bordercolor="#666666"
     borderopacity="1"
     objecttolerance="10"
     gridtolerance="10"
     guidetolerance="10"
     inkscape:pageopacity="0"
     inkscape:pageshadow="2"
     inkscape:window-width="1280"
     inkscape:window-height="655"
     id="namedview66"
     showgrid="false"
     inkscape:zoom="0.61871843"
     inkscape:cx="31.484433"
     inkscape:cy="209.29828"
     inkscape:window-x="0"
     inkscape:window-y="0"
     inkscape:window-maximized="1"
     inkscape:current-layer="g74" />
  <g
     id="g74"
     transform="matrix(1.0022319,0,0,1.0022319,7.4054031e-5,7.4054031e-5)">
    <path
       style="fill:#020202;stroke-width:1.00223196"
       d="M 258.01367 1.8769531 C 257.54556 1.8685803 257.07064 1.8695455 256.59961 1.8808594 C 253.45937 1.9562855 250.50955 2.4470447 251.14648 3.0839844 C 251.42956 3.3670638 249.47457 4.6117287 246.80273 5.8496094 C 238.56094 9.6680897 233.78716 17.934103 233.70508 28.527344 C 233.67715 32.13435 233.20387 34.365795 232.4082 34.644531 C 231.71917 34.885914 228.90067 33.910319 226.14453 32.474609 C 216.43468 27.416616 203.78665 29.591177 197.16797 37.457031 C 192.54723 42.948469 191.21171 46.503062 191.16992 53.416016 C 191.10157 64.710978 193.58244 67.821007 217.12305 85.951172 C 224.84023 91.894678 231.71917 97.465657 232.4082 98.330078 C 232.93133 98.986356 233.25022 102.86508 233.4375 111.99609 A 147.60206 147.60206 0 0 0 171.78906 137.35938 L 162.36133 127.92969 L 165.06445 105.80078 C 168.13375 80.680008 167.93382 76.798417 163.19727 69.765625 C 152.2047 53.443975 126.28302 57.333934 120.82031 76.125 C 119.97042 79.04851 118.85316 81.701072 118.33789 82.019531 C 117.82262 82.33798 115.25877 80.818343 112.64062 78.642578 C 103.58546 71.11743 96.8656 69.289275 87.876953 71.902344 C 75.313966 75.554507 68.225634 87.712316 71.267578 100.39258 C 72.124707 103.96549 73.90987 107.0575 77.445312 111.09766 C 80.179572 114.22224 82.249517 117.29213 82.044922 117.91992 C 81.840326 118.54772 79.356375 119.81433 76.525391 120.73438 C 69.423375 123.04246 64.836676 126.8298 61.826172 132.87109 C 58.449653 139.64688 58.388464 147.21531 61.654297 154.14062 C 64.470368 160.11223 67.241496 162.83412 73.302734 165.58203 C 79.15619 168.23573 82.540912 168.18543 107.12695 165.07422 L 127.65039 162.47656 L 137.08594 171.83008 A 147.60206 147.60206 0 0 0 111.58203 233.58984 C 102.62983 233.40176 98.823862 233.0826 98.173828 232.56445 C 97.309413 231.87542 91.738438 224.99844 85.794922 217.28125 C 72.696994 200.27461 68.897237 196.13386 64.125 193.66992 C 51.041684 186.9149 34.806025 194.01568 30.650391 208.31055 C 28.700268 215.01874 29.216797 219.8768 32.597656 226.63477 C 33.884753 229.20755 34.738515 231.87542 34.494141 232.56445 C 34.212183 233.35944 31.97506 233.83337 28.371094 233.86133 C 17.651662 233.94436 9.5235458 238.70676 5.5546875 247.23047 C 4.2413227 250.05112 3.1165252 251.90865 3.0546875 251.35742 C 2.9928799 250.80619 2.5601787 251.93203 2.09375 253.86133 C 1.2644532 257.29159 1.9086249 265.45855 2.9277344 264.43945 C 3.2108148 264.15637 4.4535298 266.11136 5.6914062 268.7832 C 9.5098897 277.025 17.777853 281.79878 28.371094 281.88086 C 31.978106 281.90879 34.209541 282.38207 34.488281 283.17773 C 34.729659 283.86677 33.752113 286.68527 32.316406 289.44141 C 28.914921 295.97126 28.784275 305.40622 32.007812 311.64453 C 37.938259 323.12136 52.767909 327.93602 64.125 322.07227 C 68.897237 319.60833 72.696994 315.46758 85.794922 298.46094 C 91.738438 290.74375 97.309413 283.86677 98.173828 283.17773 C 98.822727 282.66049 102.61026 282.34058 111.51758 282.15234 A 147.60206 147.60206 0 0 0 137.36719 343.71289 C 131.91224 349.06387 128.09264 352.67729 127.57031 352.85742 C 127.13036 353.00915 117.59781 351.99551 106.38477 350.60352 C 81.895653 347.56344 79.114988 347.52514 73.302734 350.16016 C 67.241496 352.90807 64.470368 355.62995 61.654297 361.60156 C 55.371115 374.92532 62.208176 390.76533 75.96875 394.76562 C 78.89225 395.61552 81.532692 396.71247 81.835938 397.20312 C 82.139182 397.69378 80.150905 400.87019 77.417969 404.26172 C 67.768931 416.23605 68.288378 429.89761 78.742188 439.07617 C 82.007318 441.94301 90.41188 445.28906 94.349609 445.28906 C 98.820857 445.28906 106.74595 441.83159 111.90039 437.63281 C 115.01448 435.0961 117.91767 433.41298 118.35156 433.89258 C 118.78545 434.37218 119.84474 436.89643 120.70703 439.50195 C 125.42816 453.76757 140.4837 460.29537 153.98242 453.92969 C 159.95403 451.11362 162.67592 448.3425 165.42383 442.28125 C 168.07811 436.42653 168.02814 433.04596 164.91211 408.42188 L 162.31055 387.86328 L 172.00586 378.16406 A 147.60206 147.60206 0 0 0 233.44727 403.15625 C 233.26187 412.70619 232.94212 416.74229 232.4082 417.41211 C 231.71917 418.27652 224.84023 423.8475 217.12305 429.79102 C 200.1164 442.88894 195.97761 446.68871 193.51367 451.46094 C 186.75865 464.54426 193.85943 480.77797 208.1543 484.93359 C 214.86249 486.88372 219.71859 486.36913 226.47656 482.98828 C 229.04934 481.70118 231.71917 480.84742 232.4082 481.0918 C 233.20319 481.37375 233.67712 483.61089 233.70508 487.21484 C 233.78811 497.93429 238.55051 506.06239 247.07422 510.03125 C 249.89487 511.34461 251.75045 512.47632 251.19922 512.54688 C 250.64799 512.61746 251.5514 513.03455 253.20508 513.47461 C 254.85876 513.91468 257.50702 514.08709 259.0918 513.85742 C 260.67658 513.62775 262.66972 513.43945 263.51953 513.43945 C 264.36938 513.43945 264.77249 513.14945 264.41602 512.79297 C 264.05953 512.43648 265.95316 511.13046 268.625 509.89258 C 276.86679 506.0741 281.64253 497.80808 281.72461 487.21484 C 281.75252 483.61089 282.22649 481.37375 283.02148 481.0918 C 283.71052 480.84742 286.37839 481.70118 288.95117 482.98828 C 295.75643 486.39278 300.55844 486.88637 307.44922 484.89062 C 321.6133 480.78834 328.6558 464.51477 321.91602 451.46094 C 319.47035 446.72409 315.4129 442.99609 298.30469 429.76562 C 290.5875 423.79762 283.71052 418.22225 283.02148 417.37695 C 282.48626 416.72035 282.16364 412.68505 281.97852 403.10156 A 147.60206 147.60206 0 0 0 342.83008 377.51367 L 353.06836 387.96094 L 350.49023 408.85742 C 349.07182 420.35026 347.91486 431.55876 347.92188 433.76367 C 347.93586 438.44468 351.62624 446.84304 355.04883 449.98633 C 362.23799 456.58881 373.90149 458.14951 382.82422 453.70312 C 388.98343 450.63386 392.36113 446.5704 394.85938 439.2207 C 395.85777 436.28344 397.16343 433.71635 397.75977 433.51758 C 398.3561 433.3188 401.133 435.19019 403.93164 437.67578 C 407.16555 440.54795 410.91831 442.75917 414.22852 443.74219 C 420.67983 445.65802 421.47569 445.65766 427.92578 443.74219 C 437.04997 441.0326 443.45646 433.43741 444.7832 423.75781 C 445.6826 417.19603 443.58621 411.18166 437.9707 404.21289 C 435.25964 400.84848 433.29051 397.69378 433.59375 397.20312 C 433.897 396.71247 436.50809 395.62288 439.39648 394.7832 C 460.01954 388.78792 462.19753 359.53922 442.69727 350.45898 C 436.26867 347.46553 433.48697 347.48222 408.26562 350.67383 L 387.70703 353.27539 L 377.36523 342.9375 A 147.60206 147.60206 0 0 0 402.42969 282.125 C 412.39563 282.3084 416.57295 282.63338 417.25586 283.17773 C 418.12027 283.86677 423.6893 290.74375 429.63281 298.46094 C 442.73074 315.46758 446.53051 319.60833 451.30273 322.07227 C 464.38606 328.82729 480.62172 321.7265 484.77734 307.43164 C 486.72747 300.72345 486.21093 295.86539 482.83008 289.10742 C 481.54298 286.53464 480.69117 283.86677 480.93555 283.17773 C 481.2175 282.38274 483.45464 281.90882 487.05859 281.88086 C 497.65183 281.79881 505.91785 277.025 509.73633 268.7832 C 510.97421 266.11136 512.21887 264.15637 512.50195 264.43945 C 513.52105 265.45855 514.16329 257.29159 513.33398 253.86133 C 512.86756 251.93203 512.43488 250.80619 512.37305 251.35742 C 512.31124 251.90865 511.18641 250.05112 509.87305 247.23047 C 505.90419 238.70676 497.77804 233.94441 487.05859 233.86133 C 483.45464 233.83342 481.2175 233.35944 480.93555 232.56445 C 480.69117 231.87542 481.65248 229.05692 483.07227 226.30078 C 488.07216 216.59479 485.89994 203.86507 478.12891 197.32617 C 472.63747 192.70543 469.08288 191.36796 462.16992 191.32617 C 450.87496 191.25782 447.76298 193.74065 429.63281 217.28125 C 423.6893 224.99844 418.12027 231.87542 417.25586 232.56445 C 416.57744 233.10523 412.44726 233.42918 402.625 233.61328 A 147.60206 147.60206 0 0 0 377.50977 172.66016 L 387.65039 162.52344 L 410.62891 165.25977 C 424.41046 166.90122 435.08438 167.71746 437.30078 167.29883 C 443.53963 166.12041 450.298 160.83792 453.40039 154.71289 C 460.2383 141.21283 453.57079 125.07897 439.45898 120.97656 C 436.53547 120.12667 433.897 119.02973 433.59375 118.53906 C 433.29051 118.04841 435.27683 114.872 438.00977 111.48047 C 447.65879 99.506136 447.13936 85.844576 436.68555 76.666016 C 433.42041 73.799181 425.01585 70.453125 421.07812 70.453125 C 416.63566 70.453125 408.68463 73.909411 403.60547 78.046875 C 400.53389 80.548967 397.60139 82.334945 397.08789 82.017578 C 396.57439 81.700221 395.45926 79.04851 394.60938 76.125 C 390.59694 62.322696 374.82516 55.551369 361.32812 61.835938 C 353.46357 65.497882 347.91602 74.080919 347.91602 82.583984 C 347.91602 84.88113 349.07756 95.944694 350.49805 107.16992 L 353.08008 127.58008 L 343.13672 137.90234 A 147.60206 147.60206 0 0 0 281.98438 112.30664 C 282.17059 102.96262 282.49238 99.01433 283.02148 98.365234 C 283.71052 97.519936 290.5875 91.944563 298.30469 85.976562 C 315.4129 72.7461 319.47035 69.018099 321.91602 64.28125 C 328.67104 51.197928 321.57025 34.964223 307.27539 30.808594 C 300.5672 28.85847 295.70914 29.375007 288.95117 32.755859 C 286.37839 34.042958 283.71052 34.894768 283.02148 34.650391 C 282.22649 34.368434 281.75257 32.131305 281.72461 28.527344 C 281.64157 17.807908 276.87918 9.6797967 268.35547 5.7109375 C 265.53482 4.3975717 263.67729 3.2727451 264.22852 3.2109375 C 264.77974 3.1491279 263.65195 2.7183798 261.72266 2.2519531 C 260.75789 2.0187126 259.418 1.9020715 258.01367 1.8769531 z M 257.71484 17.171875 C 260.22986 17.171875 262.74395 18.202933 264.80664 20.265625 L 267.73633 23.195312 L 267.73633 38.806641 C 267.73633 53.082021 267.90734 54.588986 269.74023 56.421875 C 273.37434 60.05598 277.17634 59.046458 286.13477 52.068359 C 290.62379 48.571659 295.35794 45.148901 296.65625 44.460938 C 301.4751 41.907452 308.53172 45.382719 310.28906 51.175781 C 311.97795 56.743202 309.59485 59.497019 289.78125 74.863281 C 279.33698 82.963239 270.10365 90.572254 269.26367 91.771484 C 268.47358 92.899501 268.08714 96.575156 267.90039 110.57031 A 147.60206 147.60206 0 0 0 257.04102 110.02734 A 147.60206 147.60206 0 0 0 247.52344 110.36328 C 247.33552 96.555194 246.94993 92.893467 246.16406 91.771484 C 245.32408 90.572254 236.11216 82.978641 225.69336 74.898438 C 213.34252 65.319857 206.33708 59.206734 205.56055 57.332031 C 203.24755 51.747957 207.06793 44.9631 213.16992 43.818359 C 217.14945 43.071795 218.88167 43.958984 229.29492 52.070312 C 235.81878 57.152023 238.17012 58.427734 241.01367 58.427734 C 247.00669 58.427734 247.69141 56.392528 247.69141 38.583984 L 247.69141 23.195312 L 250.62109 20.265625 C 252.68378 18.202933 255.19983 17.171875 257.71484 17.171875 z M 143.25781 73.386719 C 148.31286 73.425812 153.49059 77.242496 153.46875 82.654297 C 153.46134 84.488191 152.33355 94.970768 150.96289 105.94922 C 149.59223 116.92767 148.4707 127.75447 148.4707 130.00781 C 148.4707 132.62293 148.78843 133.87824 160.65234 146.08203 A 147.60206 147.60206 0 0 0 145.9375 160.62109 L 133.94727 148.62891 L 129.43359 148.63281 C 126.95075 148.63511 116.12394 149.75933 105.375 151.13281 C 94.62606 152.50629 84.331941 153.63276 82.498047 153.63477 C 74.621927 153.64462 70.132437 142.68788 75.722656 137.09766 C 78.531972 134.28835 79.370963 134.05118 93.232422 132.16406 C 104.66073 130.60819 106.71094 129.45173 106.71094 124.55664 C 106.71094 121.94788 105.05826 119.76235 96.630859 111.22852 C 85.870597 100.33235 84.328125 98.169021 84.328125 93.972656 C 84.328125 90.37768 90.219467 84.484375 93.814453 84.484375 C 98.010808 84.484375 100.1761 86.028791 111.07227 96.789062 C 119.6061 105.21645 121.78968 106.86914 124.39844 106.86914 C 129.29353 106.86914 130.45194 104.81697 132.00781 93.388672 C 133.89493 79.527203 134.1321 78.688212 136.94141 75.878906 C 138.68908 74.13123 140.96006 73.368949 143.25781 73.386719 z M 372.16992 73.386719 C 374.46767 73.368949 376.7406 74.13123 378.48828 75.878906 C 381.29759 78.688212 381.5328 79.527203 383.41992 93.388672 C 384.9758 104.81697 386.13421 106.86719 391.0293 106.86719 C 393.63806 106.86719 395.82359 105.21645 404.35742 96.789062 C 415.25359 86.028791 417.41692 84.484375 421.61328 84.484375 C 425.20826 84.484375 431.09961 90.37768 431.09961 93.972656 C 431.09961 98.169021 429.55714 100.33251 418.79688 111.22852 C 410.36948 119.76235 408.7168 121.94788 408.7168 124.55664 C 408.7168 129.45173 410.767 130.60819 422.19531 132.16406 C 436.05678 134.05118 436.89577 134.28835 439.70508 137.09766 C 445.2953 142.68788 440.80776 153.64479 432.93164 153.63477 C 431.09776 153.63247 420.80167 152.50629 410.05273 151.13281 C 399.3038 149.75933 388.47893 148.63286 385.99609 148.63086 L 381.48242 148.62695 L 368.7207 161.39258 A 147.60206 147.60206 0 0 0 354.20117 146.66602 C 366.57045 133.9692 366.95703 132.65984 366.95703 130.00781 C 366.95703 127.75447 365.83551 116.92767 364.46484 105.94922 C 363.09418 94.970768 361.966 84.488191 361.95898 82.654297 C 361.93712 77.242496 367.11487 73.425812 372.16992 73.386719 z M 257.71484 122.28516 A 135.42857 135.42857 0 0 1 393.14258 257.71484 A 135.42857 135.42857 0 0 1 257.71484 393.14258 A 135.42857 135.42857 0 0 1 122.28516 257.71484 A 135.42857 135.42857 0 0 1 257.71484 122.28516 z M 53.953125 205.03711 C 55.039499 205.06491 56.128767 205.28311 57.175781 205.7168 C 59.050486 206.49333 65.163607 213.50073 74.742188 225.85156 C 82.822401 236.27036 90.414061 245.48229 91.613281 246.32227 C 92.727359 247.10259 96.370211 247.48829 109.93555 247.67773 A 147.60206 147.60206 0 0 0 109.4375 257.62891 A 147.60206 147.60206 0 0 0 109.80859 268.06836 C 96.355812 268.25851 92.723659 268.64219 91.613281 269.41992 C 90.414061 270.2599 82.822401 279.47183 74.742188 289.89062 C 65.163607 302.24146 59.050486 309.24886 57.175781 310.02539 C 51.591706 312.33839 44.806849 308.518 43.662109 302.41602 C 42.915547 298.43648 43.800776 296.70427 51.912109 286.29102 C 56.993816 279.76716 58.269531 277.41582 58.269531 274.57227 C 58.269531 268.57925 56.23432 267.89258 38.425781 267.89258 L 23.037109 267.89258 L 20.107422 264.96484 C 15.982035 260.83947 15.982035 254.90467 20.107422 250.7793 L 23.037109 247.84961 L 38.650391 247.84961 C 52.925771 247.84961 54.432743 247.67664 56.265625 245.84375 C 59.899738 242.20965 58.890209 238.4096 51.912109 229.45117 C 43.800776 219.03792 42.915547 217.3057 43.662109 213.32617 C 44.59221 208.36831 49.245502 204.91664 53.953125 205.03711 z M 461.47656 205.03711 C 466.18418 204.91664 470.83748 208.36831 471.76758 213.32617 C 472.51414 217.3057 471.62695 219.03792 463.51562 229.45117 C 458.43392 235.97503 457.1582 238.32637 457.1582 241.16992 C 457.1582 247.16294 459.1934 247.84961 477.00195 247.84961 L 492.39062 247.84961 L 495.32031 250.7793 C 499.4457 254.90467 499.4457 260.83751 495.32031 264.96289 L 492.39062 267.89258 L 476.7793 267.89258 C 462.50392 267.89258 460.995 268.06555 459.16211 269.89844 C 455.52801 273.53254 456.53754 277.33259 463.51562 286.29102 C 467.01232 290.78004 470.43704 295.51419 471.125 296.8125 C 473.67849 301.63135 470.20126 308.68797 464.4082 310.44531 C 458.84078 312.1342 456.08892 309.7511 440.72266 289.9375 C 432.62269 279.49323 425.01368 270.2599 423.81445 269.41992 C 422.66037 268.61157 418.94394 268.2245 404.12109 268.04297 A 147.60206 147.60206 0 0 0 404.64258 257.62891 A 147.60206 147.60206 0 0 0 404.29102 247.69531 C 418.9542 247.51277 422.66532 247.12715 423.81445 246.32227 C 425.01368 245.48229 432.60533 236.27036 440.68555 225.85156 C 450.26413 213.50073 456.3792 206.49333 458.25391 205.7168 C 459.30092 205.28311 460.39019 205.06491 461.47656 205.03711 z M 368.56055 354.18945 L 381.48242 367.11523 L 385.99609 367.10938 C 388.47893 367.10708 399.3038 365.98284 410.05273 364.60938 C 420.80167 363.2359 431.09776 362.10943 432.93164 362.10742 C 440.80776 362.09757 445.2953 373.05431 439.70508 378.64453 C 436.89577 381.45384 436.05873 381.69101 422.19727 383.57812 C 410.76896 385.134 408.7168 386.29046 408.7168 391.18555 C 408.7168 393.79431 410.36948 395.97984 418.79688 404.51367 C 429.45898 415.31045 431.09961 417.58916 431.09961 421.59375 C 431.09961 427.62256 422.30851 432.98185 416.92383 430.23633 C 415.62552 429.57435 409.97129 424.49698 404.35742 418.95312 C 395.82359 410.52574 393.63806 408.875 391.0293 408.875 C 386.13421 408.875 384.97774 410.92521 383.42188 422.35352 C 381.53475 436.21498 381.29759 437.05398 378.48828 439.86328 C 372.89806 445.4535 361.94115 440.96401 361.95117 433.08789 C 361.95347 431.25401 363.07966 420.95987 364.45312 410.21094 C 365.8266 399.462 366.95113 388.63137 366.95312 386.14258 L 366.95703 381.61719 L 354 368.67188 A 147.60206 147.60206 0 0 0 368.56055 354.18945 z M 146.2168 354.8418 A 147.60206 147.60206 0 0 0 160.72266 369.375 L 148.4707 381.61719 L 148.47461 386.14258 C 148.4769 388.63137 149.60308 399.462 150.97656 410.21094 C 152.35004 420.95987 153.47651 431.25401 153.47852 433.08789 C 153.48837 440.96401 142.53163 445.4535 136.94141 439.86328 C 134.1321 437.05398 133.89493 436.21498 132.00781 422.35352 C 130.45194 410.92521 129.29353 408.875 124.39844 408.875 C 121.78968 408.875 119.6061 410.52574 111.07227 418.95312 C 100.1761 429.7134 98.010808 431.25781 93.814453 431.25781 C 90.219467 431.25781 84.328125 425.36451 84.328125 421.76953 C 84.328125 417.57317 85.870597 415.40984 96.630859 404.51367 C 105.05826 395.97984 106.71094 393.79431 106.71094 391.18555 C 106.71094 386.29046 104.66073 385.134 93.232422 383.57812 C 79.370963 381.69101 78.531972 381.45384 75.722656 378.64453 C 70.132437 373.05431 74.621927 362.0974 82.498047 362.10742 C 84.331941 362.10972 94.62606 363.2359 105.375 364.60938 C 116.12394 365.98284 126.95075 367.10932 129.43359 367.11133 L 133.94727 367.11523 L 146.2168 354.8418 z M 247.5332 404.75586 A 147.60206 147.60206 0 0 0 257.04102 405.23047 A 147.60206 147.60206 0 0 0 267.89453 404.81055 C 268.0792 419.13622 268.46621 422.83216 269.26367 423.9707 C 270.10365 425.16993 279.31557 432.76354 289.73438 440.84375 C 302.0852 450.42233 309.09261 456.53545 309.86914 458.41016 C 312.18214 463.99422 308.36175 470.77909 302.25977 471.92383 C 298.28023 472.67039 296.54802 471.78515 286.13477 463.67383 C 279.67696 458.64358 277.2431 457.31445 274.48047 457.31445 C 268.76976 457.31445 268.2957 458.7054 267.73633 477.09766 L 267.23633 493.57422 L 264.42383 495.99023 C 260.2963 499.53735 254.46447 499.31995 250.62109 495.47656 L 247.69141 492.54688 L 247.69141 476.93555 C 247.69141 462.66017 247.52039 461.1532 245.6875 459.32031 C 242.0534 455.68621 238.25335 456.69573 229.29492 463.67383 C 224.8059 467.17053 220.0698 470.59329 218.77148 471.28125 C 213.95263 473.83474 206.89797 470.35947 205.14062 464.56641 C 203.45174 458.99899 205.83483 456.24517 225.64844 440.87891 C 236.09271 432.77894 245.32408 425.16993 246.16406 423.9707 C 246.96264 422.83056 247.34885 419.132 247.5332 404.75586 z "
       id="path76"
       transform="matrix(0.99777307,0,0,0.99777307,-7.3889118e-5,-7.3889118e-5)" />
    <text
       xml:space="preserve"
       style="font-style:normal;font-variant:normal;font-weight:bold;font-stretch:normal;font-size:95.78621674px;line-height:1.25;font-family:sans-serif;-inkscape-font-specification:'sans-serif, Bold';font-variant-ligatures:normal;font-variant-caps:normal;font-variant-numeric:normal;font-feature-settings:normal;text-align:start;letter-spacing:0px;word-spacing:0px;writing-mode:lr-tb;text-anchor:start;fill:#000000;fill-opacity:1;stroke:none;stroke-width:0.99777305"
       x="143.52536"
       y="288.31473"
       id="text10"><tspan
         sodipodi:role="line"
         id="tspan35"
         x="143.52536"
         y="288.31473">MAX</tspan></text>
  </g>
</svg>
