<?xml version="1.0" encoding="UTF-8" standalone="no"?>
<!-- Created with Inkscape (http://www.inkscape.org/) -->

<svg
   xmlns:osb="http://www.openswatchbook.org/uri/2009/osb"
   xmlns:dc="http://purl.org/dc/elements/1.1/"
   xmlns:cc="http://creativecommons.org/ns#"
   xmlns:rdf="http://www.w3.org/1999/02/22-rdf-syntax-ns#"
   xmlns:svg="http://www.w3.org/2000/svg"
   xmlns="http://www.w3.org/2000/svg"
   xmlns:xlink="http://www.w3.org/1999/xlink"
   xmlns:sodipodi="http://sodipodi.sourceforge.net/DTD/sodipodi-0.dtd"
   xmlns:inkscape="http://www.inkscape.org/namespaces/inkscape"
   version="1.1"
   id="svg64"
   width="512"
   height="512"
   viewBox="0 0 512 512"
   sodipodi:docname="ac_off.svg"
   inkscape:version="0.92.5 (2060ec1f9f, 2020-04-08)">
  <metadata
     id="metadata70">
    <rdf:RDF>
      <cc:Work
         rdf:about="">
        <dc:format>image/svg+xml</dc:format>
        <dc:type
           rdf:resource="http://purl.org/dc/dcmitype/StillImage" />
        <dc:title />
      </cc:Work>
    </rdf:RDF>
  </metadata>
  <defs
     id="defs68">
    <linearGradient
       id="linearGradient848"
       osb:paint="solid">
      <stop
         style="stop-color:#000000;stop-opacity:1;"
         offset="0"
         id="stop846" />
    </linearGradient>
    <linearGradient
       id="linearGradient842"
       osb:paint="solid">
      <stop
         style="stop-color:#000000;stop-opacity:1;"
         offset="0"
         id="stop840" />
    </linearGradient>
    <linearGradient
       id="linearGradient836"
       osb:paint="solid">
      <stop
         style="stop-color:#000000;stop-opacity:1;"
         offset="0"
         id="stop834" />
    </linearGradient>
    <linearGradient
       inkscape:collect="always"
       xlink:href="#linearGradient836"
       id="linearGradient838"
       x1="1.7103855"
       y1="257.34087"
       x2="512.56985"
       y2="257.34087"
       gradientUnits="userSpaceOnUse" />
    <linearGradient
       inkscape:collect="always"
       xlink:href="#linearGradient842"
       id="linearGradient844"
       x1="1.7103855"
       y1="257.34087"
       x2="512.56985"
       y2="257.34087"
       gradientUnits="userSpaceOnUse" />
    <linearGradient
       inkscape:collect="always"
       xlink:href="#linearGradient848"
       id="linearGradient854"
       x1="18.184582"
       y1="258.10142"
       x2="108.69425"
       y2="258.10142"
       gradientUnits="userSpaceOnUse" />
  </defs>
  <sodipodi:namedview
     pagecolor="#ffffff"
     bordercolor="#666666"
     borderopacity="1"
     objecttolerance="10"
     gridtolerance="10"
     guidetolerance="10"
     inkscape:pageopacity="0"
     inkscape:pageshadow="2"
     inkscape:window-width="1280"
     inkscape:window-height="655"
     id="namedview66"
     showgrid="false"
     inkscape:zoom="0.87499999"
     inkscape:cx="497.79709"
     inkscape:cy="253.04896"
     inkscape:window-x="0"
     inkscape:window-y="0"
     inkscape:window-maximized="1"
     inkscape:current-layer="svg64" />
  <g
     id="g74"
     transform="matrix(1.0022319,0,0,1.0022319,7.4054031e-5,7.4054031e-5)"
     style="fill-opacity:1;fill:url(#linearGradient838);stroke:url(#linearGradient844);stroke-width:3.99109228;stroke-miterlimit:4;stroke-dasharray:none">
    <g
       aria-label="OFF"
       style="font-style:normal;font-variant:normal;font-weight:bold;font-stretch:normal;font-size:95.78621674px;line-height:1.25;font-family:sans-serif;-inkscape-font-specification:'sans-serif, Bold';font-variant-ligatures:normal;font-variant-caps:normal;font-variant-numeric:normal;font-feature-settings:normal;text-align:start;letter-spacing:0px;word-spacing:0px;writing-mode:lr-tb;text-anchor:start;fill:url(#linearGradient838);fill-opacity:1;stroke:url(#linearGradient844);stroke-width:3.99109221;stroke-miterlimit:4;stroke-dasharray:none"
       id="text10" />
  </g>
  <path
     id="path24"
     style="fill:#000000;stroke-width:4;stroke:url(#linearGradient854);stroke-miterlimit:4;stroke-dasharray:none"
     d="m 47.276975,306.54427 c -4.904992,-4.90499 -4.130597,-7.63439 5.912651,-20.83953 5.812588,-7.64255 7.102127,-15.33548 2.844504,-16.96928 -1.406106,-0.53958 -9.29379,-0.98105 -17.528188,-0.98105 -16.461558,0 -20.32136,-1.89526 -20.32136,-9.97829 0,-7.50264 4.312964,-9.41664 21.21925,-9.41664 22.243126,0 24.064842,-3.38777 11.568023,-21.5126 -7.32721,-10.62706 -7.526315,-11.21559 -5.201812,-15.37582 1.479249,-2.64745 4.063123,-4.51857 6.659716,-4.82265 4.785196,-0.56037 8.221922,2.76493 26.404676,25.54863 6.030092,7.55594 11.760686,14.27242 12.734651,14.92551 0.973965,0.65309 5.225568,1.19857 9.448004,1.21218 l 7.67716,0.0247 v 9.69747 9.69746 h -8.62273 -8.622733 L 79.56464,282.70467 C 57.352142,310.648 53.917022,313.18432 47.276975,306.54427 Z m 89.018705,131.14985 c -0.88259,-1.64912 -2.40131,-7.98497 -3.37494,-14.07965 -2.97748,-18.6383 -6.67689,-19.62032 -21.60298,-5.73462 -12.786098,11.89487 -16.129231,13.78579 -20.365153,11.51879 -1.757496,-0.94058 -3.996966,-3.2078 -4.976601,-5.03827 -2.136358,-3.99181 2.203737,-11.04846 13.787028,-22.4166 7.347756,-7.21128 9.185026,-12.69631 5.294666,-15.80681 -1.11117,-0.88843 -7.059488,-2.476 -13.218491,-3.52795 -6.159003,-1.05194 -12.522964,-2.62162 -14.142136,-3.48818 -3.67241,-1.96541 -3.912302,-9.96004 -0.404136,-13.4682 3.16648,-3.16648 4.398397,-3.16123 32.679953,0.13945 l 23.09793,2.69571 6.42497,-6.27382 6.42498,-6.27382 6.79236,6.79237 6.79237,6.79237 -6.19702,6.34633 -6.19703,6.34632 2.93412,26.66188 c 3.29483,29.93957 2.89772,31.81311 -6.74311,31.81311 -3.60735,0 -5.93521,-0.99616 -7.00678,-2.99841 z m 114.07043,56.61126 c -2.09267,-2.31237 -2.67487,-6.28754 -2.67487,-18.26356 0,-22.15412 -3.30979,-24.02874 -20.61809,-11.67779 -9.03191,6.44503 -11.11809,7.29977 -14.72265,6.03212 -2.33923,-0.82266 -4.87999,-3.41147 -5.73542,-5.84387 -1.95263,-5.55227 -0.7217,-6.93925 22.89342,-25.7957 l 18.18274,-14.51876 v -9.42065 -9.42065 l 9.69747,-0.0464 9.69746,-0.0464 0.0221,6.78474 c 0.0122,3.7316 0.42683,8.23935 0.92152,10.01722 0.4947,1.77787 7.94506,8.86723 16.55638,15.75414 21.59426,17.27004 24.52239,20.19154 24.52239,24.46687 0,4.09544 -4.55239,9.07444 -8.29692,9.07444 -1.31205,0 -7.03346,-3.2729 -12.71426,-7.2731 -17.37153,-12.2324 -21.01117,-9.65529 -21.01117,14.87729 0,11.30337 -0.52152,14.25464 -2.82843,16.00583 -4.05427,3.07763 -10.77677,2.73608 -13.89163,-0.70581 z m 119.29545,-53.62304 c -7.10493,-2.68862 -7.46088,-4.66225 -4.84626,-26.8704 3.63322,-30.85995 3.49674,-32.549 -3.1828,-39.38946 l -5.66081,-5.79719 6.46893,-6.31674 6.46893,-6.31674 6.39429,6.24386 6.3943,6.24387 26.96536,-2.98388 26.96535,-2.98387 3.00584,3.71205 c 6.74241,8.32652 2.16975,13.70641 -13.82105,16.26095 -21.02608,3.35893 -21.76329,6.3546 -5.80053,23.57047 11.84586,12.77578 13.24312,16.22774 8.35802,20.6487 -5.29583,4.79266 -9.75655,3.17909 -21.64818,-7.83073 -16.25175,-15.04663 -20.62701,-14.28098 -23.09007,4.04061 -2.06463,15.35785 -5.80433,20.48061 -12.97132,17.7685 z m 78.85528,-142.45739 c -5.11537,-6.35349 -12.78191,-15.80852 -17.03676,-21.01117 l -7.73608,-9.45937 h -9.46922 -9.46922 l 0.0913,-9.69746 0.0913,-9.69747 h 7.68836 c 4.22861,0 8.83542,-0.44016 10.23736,-0.97813 1.40194,-0.53798 7.77251,-7.62925 14.15682,-15.75838 20.432,-26.01604 24.71906,-29.14928 31.12232,-22.74602 4.04217,4.04217 3.03731,8.19019 -4.73328,19.53883 -7.44632,10.87505 -8.81553,15.52216 -5.2528,17.82801 1.11117,0.71917 9.21889,1.67123 18.01716,2.11569 15.14268,0.76498 16.17358,1.04546 19.30644,5.2528 l 3.30959,4.44467 -3.31327,4.44467 c -3.17184,4.25495 -3.99207,4.46458 -19.21591,4.91104 -22.98816,0.67417 -24.56486,3.10665 -12.86864,19.85348 7.90562,11.31941 8.86985,15.73162 4.33483,19.83575 -5.61362,5.08027 -9.44469,3.31457 -19.26039,-8.87694 z m -86.81437,-144.65364 -6.97057,-7.14589 5.32232,-5.59752 c 2.92727,-3.07863 5.78568,-6.57291 6.35201,-7.76506 1.16056,-2.44298 1.10793,-3.15689 -2.60278,-35.31039 -2.02284,-17.52793 -1.95175,-18.480606 1.59777,-21.412536 4.1922,-3.462778 9.02395,-3.555203 12.69044,-0.242752 2.55142,2.30506 2.98608,3.688532 4.82878,15.369573 2.16581,13.729275 2.65373,14.850925 6.74926,15.515545 3.20984,0.52088 5.50633,-1.03414 15.13263,-10.246789 9.90186,-9.476368 13.10018,-11.840184 16.02014,-11.840184 2.33962,0 3.82621,0.720891 6.32789,3.068568 3.94262,3.699923 4.52258,7.130991 1.90346,11.260916 -0.89057,1.404279 -5.49001,6.597829 -10.22097,11.541219 -9.21265,9.6263 -10.76768,11.92279 -10.24679,15.13262 0.66585,4.10316 1.83565,4.61119 15.51554,6.73815 5.02857,0.78185 10.22373,1.81942 11.5448,2.3057 2.96129,1.09005 5.60463,3.99999 6.11766,6.73468 0.83039,4.42638 -2.23163,9.89728 -6.28888,11.2363 -2.21849,0.73216 -1.62831,0.78017 -25.37358,-2.06371 -8.95714,-1.07277 -19.07026,-2.11983 -22.47359,-2.32682 l -6.18788,-0.37634 -6.38355,6.28531 -6.38355,6.2853 z m -113.92254,-47.676 c -0.0198,-2.27857 -0.23979,-6.275752 -0.48892,-8.882615 -0.39362,-4.118788 -0.66965,-4.968388 -2.1069,-6.484885 -1.46458,-1.545338 -7.14865,-6.17888 -26.4988,-21.601329 -9.33751,-7.442171 -13.00996,-11.195044 -13.43875,-13.733011 -0.73499,-4.350353 2.89665,-9.714707 7.40389,-10.936414 3.51055,-0.95155 5.68339,0.04313 14.69805,6.728411 4.49992,3.337149 9.00913,6.417774 10.02046,6.845834 2.24052,0.948327 5.32875,1.002902 7.24874,0.128099 2.52607,-1.150953 2.83666,-3.113339 3.06259,-19.349808 l 0.21071,-15.142857 1.81959,-1.907217 c 4.87542,-5.110222 10.12095,-5.340165 15.43257,-0.676499 l 2.1013,1.844964 0.0308,11.797947 c 0.0169,6.488871 0.24508,13.843422 0.50697,16.343445 0.42785,4.08428 0.65756,4.707577 2.26392,6.142857 2.1448,1.91638 4.92689,2.09062 8.34115,0.522399 1.25715,-0.577424 5.96152,-3.776571 10.45417,-7.109216 9.07457,-6.731513 10.6883,-7.373957 14.68671,-5.84695 4.58741,1.751947 7.94057,7.292349 6.57973,10.871629 -1.43321,3.769633 -3.89071,6.003558 -26.00632,23.640327 -16.2045,12.922771 -15.21216,11.961777 -15.75235,15.254634 -0.25588,1.559783 -0.48057,5.728825 -0.4993,9.264535 l -0.034,6.42857 h -10 -10 z m -108.04955,48.34277 -5.89408,-5.9142 h -3.16608 c -1.74135,0 -8.81737,0.65215 -15.7245,1.44922 -6.90712,0.79706 -17.035353,1.96558 -22.507176,2.5967 -5.471823,0.63112 -10.698066,0.98292 -11.613874,0.78178 -2.182988,-0.47947 -5.55052,-3.4742 -6.522475,-5.80042 -1.583014,-3.78869 -0.857116,-7.4257 2.065347,-10.34817 2.169391,-2.16939 3.508761,-2.5522 15.281253,-4.36763 13.295255,-2.05025 15.061375,-2.95538 15.127585,-7.7528 0.042,-3.04626 -0.87333,-4.31903 -10.137808,-14.09604 C 84.255407,97.718285 83.306625,96.059967 85.555316,91.414791 c 1.727683,-3.568918 5.699882,-6.52024 8.771312,-6.517038 3.242271,0.0034 5.613408,1.708901 15.676592,11.275915 4.65177,4.422412 9.44136,8.708242 10.64353,9.524052 2.44909,1.662 4.74658,1.87891 7.08626,0.66901 2.53468,-1.31073 3.06992,-3.11645 5.26346,-17.757138 1.33648,-8.920325 2.44998,-11.611018 5.61433,-13.566694 4.04078,-2.497336 10.6627,-0.832679 13.23332,3.326662 1.57255,2.544443 1.4613,5.19339 -1.17109,27.88384 -1.25715,10.83622 -2.28572,21.09919 -2.28572,22.80661 0,3.51425 1.11338,5.57035 5.63524,10.40673 1.46924,1.57142 3.40465,3.67485 4.30093,4.67429 l 1.62959,1.81715 -7.16431,7.09705 -7.16432,7.09704 z m 175.57421,134.72021 h -14.30401 v -68.544 h 39.264 v 11.904 h -24.95999 v 17.664 h 23.23199 v 11.904 h -23.23199 z m -52.70399,0 h -14.304 v -68.544 h 39.264 v 11.904 h -24.96 v 17.664 h 23.232 v 11.904 h -23.232 z m -28.51196,-34.368 q 0,10.656 -3.552,18.624 -3.45599,7.872 -10.656,12.288 -7.19999,4.416 -18.43199,4.416 -11.136,0 -18.432,-4.416 -7.2,-4.416 -10.752,-12.384 -3.456,-7.968 -3.456,-18.624 0,-10.656 3.456,-18.528 3.552,-7.872 10.752,-12.192 7.296,-4.416 18.528,-4.416 11.136,0 18.33599,4.416 7.20001,4.32 10.656,12.288 3.552,7.872 3.552,18.528 z m -50.016,0 q 0,10.752 4.128,16.992 4.12801,6.144 13.24801,6.144 9.31199,0 13.34399,-6.144 4.032,-6.24 4.032,-16.992 0,-10.848 -4.032,-16.992 -4.032,-6.144 -13.24799,-6.144 -9.216,0 -13.34401,6.144 -4.128,6.144 -4.128,16.992 z M 258.01367,1.8769531 c -0.46811,-0.00837 -0.94303,-0.00741 -1.41406,0.00391 -3.14024,0.075426 -6.09006,0.5661853 -5.45313,1.203125 0.28308,0.2830794 -1.67191,1.5277443 -4.34375,2.765625 -8.24179,3.8184803 -13.01557,12.0844936 -13.09765,22.6777346 -0.0279,3.607006 -0.50121,5.838451 -1.29688,6.117187 -0.68903,0.241383 -3.50753,-0.734212 -6.26367,-2.169922 -9.70985,-5.057993 -22.35788,-2.883432 -28.97656,4.982422 -4.62074,5.491438 -5.95626,9.046031 -5.99805,15.958985 -0.0683,11.294962 2.41252,14.404991 25.95313,32.535156 7.71718,5.943506 14.59612,11.514485 15.28515,12.378906 0.52313,0.656278 0.84202,4.535002 1.0293,13.666012 a 147.60206,147.60206 0 0 0 -61.64844,25.36329 l -9.42773,-9.42969 2.70312,-22.12891 c 3.0693,-25.120772 2.86937,-29.002363 -1.86718,-36.035155 -10.99257,-16.32165 -36.91425,-12.431691 -42.37696,6.359375 -0.84989,2.92351 -1.96715,5.576072 -2.48242,5.894531 -0.51527,0.318449 -3.07912,-1.201188 -5.69727,-3.376953 C 103.58546,71.11743 96.8656,69.289275 87.876953,71.902344 75.313966,75.554507 68.225634,87.712316 71.267578,100.39258 c 0.857129,3.57291 2.642292,6.66492 6.177734,10.70508 2.73426,3.12458 4.804205,6.19447 4.59961,6.82226 -0.204596,0.6278 -2.688547,1.89441 -5.519531,2.81446 -7.102016,2.30808 -11.688715,6.09542 -14.699219,12.13671 -3.376519,6.77579 -3.437708,14.34422 -0.171875,21.26953 2.816071,5.97161 5.587199,8.6935 11.648437,11.44141 5.853456,2.6537 9.238178,2.6034 33.824216,-0.50781 l 20.52344,-2.59766 9.43555,9.35352 a 147.60206,147.60206 0 0 0 -25.50391,61.75976 c -8.9522,-0.18808 -12.758168,-0.50724 -13.408202,-1.02539 -0.864415,-0.68903 -6.43539,-7.56601 -12.378906,-15.2832 C 72.696994,200.27461 68.897237,196.13386 64.125,193.66992 c -13.083316,-6.75502 -29.318975,0.34576 -33.474609,14.64063 -1.950123,6.70819 -1.433594,11.56625 1.947265,18.32422 1.287097,2.57278 2.140859,5.24065 1.896485,5.92968 -0.281958,0.79499 -2.519081,1.26892 -6.123047,1.29688 -10.719432,0.083 -18.8475482,4.84543 -22.8164065,13.36914 -1.3133648,2.82065 -2.4381623,4.67818 -2.5,4.12695 -0.061808,-0.55123 -0.4945088,0.57461 -0.9609375,2.50391 -0.8292968,3.43026 -0.1851251,11.59722 0.8339844,10.57812 0.2830804,-0.28308 1.5257954,1.67191 2.7636718,4.34375 3.8184835,8.2418 12.0864468,13.01558 22.6796878,13.09766 3.607012,0.0279 5.838447,0.50121 6.117187,1.29687 0.241378,0.68904 -0.736168,3.50754 -2.171875,6.26368 -3.401485,6.52985 -3.532131,15.96481 -0.308594,22.20312 5.930447,11.47683 20.760097,16.29149 32.117188,10.42774 4.772237,-2.46394 8.571994,-6.60469 21.669922,-23.61133 5.943516,-7.71719 11.514491,-14.59417 12.378906,-15.28321 0.648899,-0.51724 4.436432,-0.83715 13.343752,-1.02539 a 147.60206,147.60206 0 0 0 25.84961,61.56055 c -5.45495,5.35098 -9.27455,8.9644 -9.79688,9.14453 -0.43995,0.15173 -9.9725,-0.86191 -21.18554,-2.2539 -24.489117,-3.04008 -27.269782,-3.07838 -33.082036,-0.44336 -6.061238,2.74791 -8.832366,5.46979 -11.648437,11.4414 -6.283182,13.32376 0.553879,29.16377 14.314453,33.16406 2.9235,0.8499 5.563942,1.94685 5.867188,2.4375 0.303244,0.49066 -1.685033,3.66707 -4.417969,7.0586 -9.649038,11.97433 -9.129591,25.63589 1.324219,34.81445 3.26513,2.86684 11.669692,6.21289 15.607421,6.21289 4.471248,0 12.396341,-3.45747 17.550781,-7.65625 3.11409,-2.53671 6.01728,-4.21983 6.45117,-3.74023 0.43389,0.4796 1.49318,3.00385 2.35547,5.60937 4.72113,14.26562 19.77667,20.79342 33.27539,14.42774 5.97161,-2.81607 8.6935,-5.58719 11.44141,-11.64844 2.65428,-5.85472 2.60431,-9.23529 -0.51172,-33.85937 l -2.60156,-20.5586 9.69531,-9.69922 a 147.60206,147.60206 0 0 0 61.44141,24.99219 c -0.1854,9.54994 -0.50515,13.58604 -1.03907,14.25586 -0.68903,0.86441 -7.56797,6.43539 -15.28515,12.37891 -17.00665,13.09792 -21.14544,16.89769 -23.60938,21.66992 -6.75502,13.08332 0.34576,29.31703 14.64063,33.47265 6.70819,1.95013 11.56429,1.43554 18.32226,-1.94531 2.57278,-1.2871 5.24261,-2.14086 5.93164,-1.89648 0.79499,0.28195 1.26892,2.51909 1.29688,6.12304 0.083,10.71945 4.84543,18.84755 13.36914,22.81641 2.82065,1.31336 4.67623,2.44507 4.125,2.51563 -0.55123,0.0706 0.35218,0.48767 2.00586,0.92773 1.65368,0.44007 4.30194,0.61248 5.88672,0.38281 1.58478,-0.22967 3.57792,-0.41797 4.42773,-0.41797 0.84985,0 1.25296,-0.29 0.89649,-0.64648 -0.35649,-0.35649 1.53714,-1.66251 4.20898,-2.90039 8.24179,-3.81848 13.01753,-12.0845 13.09961,-22.67774 0.0279,-3.60395 0.50188,-5.84109 1.29687,-6.12304 0.68904,-0.24438 3.35691,0.60938 5.92969,1.89648 6.80526,3.4045 11.60727,3.89809 18.49805,1.90234 14.16408,-4.10228 21.20658,-20.37585 14.4668,-33.42968 -2.44567,-4.73685 -6.50312,-8.46485 -23.61133,-21.69532 -7.71719,-5.968 -14.59417,-11.54337 -15.28321,-12.38867 -0.53522,-0.6566 -0.85784,-4.6919 -1.04296,-14.27539 a 147.60206,147.60206 0 0 0 60.85156,-25.58789 l 10.23828,10.44727 -2.57813,20.89648 c -1.41841,11.49284 -2.57537,22.70134 -2.56835,24.90625 0.014,4.68101 3.70436,13.07937 7.12695,16.22266 7.18916,6.60248 18.85266,8.16318 27.77539,3.71679 6.15921,-3.06926 9.53691,-7.13272 12.03516,-14.48242 0.99839,-2.93726 2.30405,-5.50435 2.90039,-5.70312 0.59633,-0.19878 3.37323,1.67261 6.17187,4.1582 3.23391,2.87217 6.98667,5.08339 10.29688,6.06641 6.45131,1.91583 7.24717,1.91547 13.69726,0 9.12419,-2.70959 15.53068,-10.30478 16.85742,-19.98438 0.8994,-6.56178 -1.19699,-12.57615 -6.8125,-19.54492 -2.71106,-3.36441 -4.68019,-6.51911 -4.37695,-7.00977 0.30325,-0.49065 2.91434,-1.58024 5.80273,-2.41992 20.62306,-5.99528 22.80105,-35.24398 3.30079,-44.32422 -6.4286,-2.99345 -9.2103,-2.97676 -34.43165,0.21485 l -20.55859,2.60156 -10.3418,-10.33789 a 147.60206,147.60206 0 0 0 25.06446,-60.8125 c 9.96594,0.1834 14.14326,0.50838 14.82617,1.05273 0.86441,0.68904 6.43344,7.56602 12.37695,15.28321 13.09793,17.00664 16.8977,21.14739 21.66992,23.61133 13.08333,6.75502 29.31899,-0.34577 33.47461,-14.64063 1.95013,-6.70819 1.43359,-11.56625 -1.94726,-18.32422 -1.2871,-2.57278 -2.13891,-5.24065 -1.89453,-5.92969 0.28195,-0.79499 2.51909,-1.26891 6.12304,-1.29687 10.59324,-0.082 18.85926,-4.85586 22.67774,-13.09766 1.23788,-2.67184 2.48254,-4.62683 2.76562,-4.34375 1.0191,1.0191 1.66134,-7.14786 0.83203,-10.57812 -0.46642,-1.9293 -0.8991,-3.05514 -0.96093,-2.50391 -0.0618,0.55123 -1.18664,-1.3063 -2.5,-4.12695 -3.96886,-8.52371 -12.09501,-13.28606 -22.81446,-13.36914 -3.60395,-0.0279 -5.84109,-0.50189 -6.12304,-1.29688 -0.24438,-0.68903 0.71693,-3.50753 2.13672,-6.26367 4.99989,-9.70599 2.82767,-22.43571 -4.94336,-28.97461 -5.49144,-4.62074 -9.04603,-5.95821 -15.95899,-6 -11.29496,-0.0683 -14.40694,2.41448 -32.53711,25.95508 -5.94351,7.71719 -11.51254,14.59417 -12.37695,15.2832 -0.67842,0.54078 -4.8086,0.86473 -14.63086,1.04883 a 147.60206,147.60206 0 0 0 -25.11523,-60.95312 l 10.14062,-10.13672 22.97852,2.73633 c 13.78155,1.64145 24.45547,2.45769 26.67187,2.03906 6.23885,-1.17842 12.99722,-6.46091 16.09961,-12.58594 6.83791,-13.50006 0.1704,-29.63392 -13.94141,-33.73633 -2.92351,-0.84989 -5.56198,-1.94683 -5.86523,-2.4375 -0.30324,-0.49065 1.68308,-3.66706 4.41602,-7.05859 9.64902,-11.974334 9.12959,-25.635894 -1.32422,-34.814454 -3.26514,-2.866835 -11.6697,-6.212891 -15.60743,-6.212891 -4.44246,0 -12.39349,3.456286 -17.47265,7.59375 -3.07158,2.502092 -6.00408,4.28807 -6.51758,3.970703 -0.5135,-0.317357 -1.62863,-2.969068 -2.47851,-5.892578 -4.01244,-13.802304 -19.78422,-20.573631 -33.28126,-14.289062 -7.86455,3.661944 -13.4121,12.244981 -13.4121,20.748046 0,2.297146 1.16154,13.36071 2.58203,24.585936 l 2.58203,20.41016 -9.94336,10.32226 a 147.60206,147.60206 0 0 0 -61.15234,-25.5957 c 0.18621,-9.34402 0.508,-13.29231 1.0371,-13.941406 0.68904,-0.845298 7.56602,-6.420671 15.28321,-12.388672 17.10821,-13.230462 21.16566,-16.958463 23.61133,-21.695312 6.75502,-13.083322 -0.34577,-29.317027 -14.64063,-33.472656 -6.70819,-1.950124 -11.56625,-1.433587 -18.32422,1.947265 -2.57278,1.287099 -5.24065,2.138909 -5.92969,1.894532 -0.79499,-0.281957 -1.26891,-2.519086 -1.29687,-6.123047 -0.083,-10.719436 -4.84543,-18.8475473 -13.36914,-22.8164065 -2.82065,-1.3133658 -4.67818,-2.4381924 -4.12695,-2.5 0.55122,-0.06181 -0.57657,-0.4925577 -2.50586,-0.9589844 -0.96477,-0.2332405 -2.30466,-0.3498816 -3.70899,-0.375 z m -0.29883,15.2949219 c 2.51502,0 5.02911,1.031058 7.0918,3.09375 l 2.92969,2.929687 v 15.611329 c 0,14.27538 0.17101,15.782345 2.0039,17.615234 3.63411,3.634105 7.43611,2.624583 16.39454,-4.353516 4.48902,-3.4967 9.22317,-6.919458 10.52148,-7.607421 4.81885,-2.553486 11.87547,0.921781 13.63281,6.714843 1.68889,5.567421 -0.69421,8.321238 -20.50781,23.6875 -10.44427,8.099958 -19.6776,15.708973 -20.51758,16.908203 -0.79009,1.128017 -1.17653,4.803672 -1.36328,18.798826 a 147.60206,147.60206 0 0 0 -10.85937,-0.54297 147.60206,147.60206 0 0 0 -9.51758,0.33594 c -0.18792,-13.808086 -0.57351,-17.469813 -1.35938,-18.591796 -0.83998,-1.19923 -10.0519,-8.792843 -20.4707,-16.873046 -12.35084,-9.578581 -19.35628,-15.691704 -20.13281,-17.566407 -2.313,-5.584074 1.50738,-12.368931 7.60937,-13.513672 3.97953,-0.746564 5.71175,0.140625 16.125,8.251953 6.52386,5.081711 8.8752,6.357422 11.71875,6.357422 5.99302,0 6.67774,-2.035206 6.67774,-19.84375 V 23.195312 l 2.92968,-2.929687 c 2.06269,-2.062692 4.57874,-3.09375 7.09375,-3.09375 z M 143.25781,73.386719 c 5.05505,0.03909 10.23278,3.855777 10.21094,9.267578 -0.007,1.833894 -1.1352,12.316471 -2.50586,23.294923 -1.37066,10.97845 -2.49219,21.80525 -2.49219,24.05859 0,2.61512 0.31773,3.87043 12.18164,16.07422 a 147.60206,147.60206 0 0 0 -14.71484,14.53906 l -11.99023,-11.99218 -4.51368,0.004 c -2.48284,0.002 -13.30965,1.12652 -24.05859,2.5 -10.74894,1.37348 -21.043059,2.49995 -22.876953,2.50196 -7.87612,0.01 -12.36561,-10.94689 -6.775391,-16.53711 2.809316,-2.80931 3.648307,-3.04648 17.509766,-4.9336 11.428308,-1.55587 13.478518,-2.71233 13.478518,-7.60742 0,-2.60876 -1.65268,-4.79429 -10.080081,-13.32812 C 85.870597,100.33235 84.328125,98.169021 84.328125,93.972656 c 0,-3.594976 5.891342,-9.488281 9.486328,-9.488281 4.196355,0 6.361647,1.544416 17.257817,12.304687 8.53383,8.427388 10.71741,10.080078 13.32617,10.080078 4.89509,0 6.0535,-2.05217 7.60937,-13.480468 1.88712,-13.861469 2.12429,-14.70046 4.9336,-17.509766 1.74767,-1.747676 4.01865,-2.509957 6.3164,-2.492187 z m 228.91211,0 c 2.29775,-0.01777 4.57068,0.744511 6.31836,2.492187 2.80931,2.809306 3.04452,3.648297 4.93164,17.509766 1.55588,11.428298 2.71429,13.478518 7.60938,13.478518 2.60876,0 4.79429,-1.65074 13.32812,-10.078128 10.89617,-10.760271 13.0595,-12.304687 17.25586,-12.304687 3.59498,0 9.48633,5.893305 9.48633,9.488281 0,4.196365 -1.54247,6.359854 -12.30273,17.255864 -8.4274,8.53383 -10.08008,10.71936 -10.08008,13.32812 0,4.89509 2.0502,6.05155 13.47851,7.60742 13.86147,1.88712 14.70046,2.12429 17.50977,4.9336 5.59022,5.59022 1.10268,16.54713 -6.77344,16.53711 -1.83388,-0.002 -12.12997,-1.12848 -22.87891,-2.50196 -10.74893,-1.37348 -21.5738,-2.49995 -24.05664,-2.50195 l -4.51367,-0.004 -12.76172,12.76563 a 147.60206,147.60206 0 0 0 -14.51953,-14.72656 c 12.36928,-12.69682 12.75586,-14.00618 12.75586,-16.65821 0,-2.25334 -1.12152,-13.08014 -2.49219,-24.05859 -1.37066,-10.978452 -2.49884,-21.461029 -2.50586,-23.294923 -0.0219,-5.411801 5.15589,-9.228485 10.21094,-9.267578 z M 257.71484,122.28516 A 135.42857,135.42857 0 0 1 393.14258,257.71484 135.42857,135.42857 0 0 1 257.71484,393.14258 135.42857,135.42857 0 0 1 122.28516,257.71484 135.42857,135.42857 0 0 1 257.71484,122.28516 Z M 53.953125,205.03711 c 1.086374,0.0278 2.175642,0.246 3.222656,0.67969 1.874705,0.77653 7.987826,7.78393 17.566407,20.13476 8.080213,10.4188 15.671873,19.63073 16.871093,20.47071 1.114078,0.78032 4.75693,1.16602 18.322269,1.35546 a 147.60206,147.60206 0 0 0 -0.49805,9.95118 147.60206,147.60206 0 0 0 0.37109,10.43945 c -13.452778,0.19015 -17.084931,0.57383 -18.195309,1.35156 -1.19922,0.83998 -8.79088,10.05191 -16.871093,20.4707 -9.578581,12.35084 -15.691702,19.35824 -17.566407,20.13477 -5.584075,2.313 -12.368932,-1.50739 -13.513672,-7.60937 -0.746562,-3.97954 0.138667,-5.71175 8.25,-16.125 5.081707,-6.52386 6.357422,-8.8752 6.357422,-11.71875 0,-5.99302 -2.035211,-6.67969 -19.84375,-6.67969 H 23.037109 l -2.929687,-2.92774 c -4.125387,-4.12537 -4.125387,-10.06017 0,-14.18554 l 2.929687,-2.92969 h 15.613282 c 14.27538,0 15.782352,-0.17297 17.615234,-2.00586 3.634113,-3.6341 2.624584,-7.43415 -4.353516,-16.39258 -8.111333,-10.41325 -8.996562,-12.14547 -8.25,-16.125 0.930101,-4.95786 5.583393,-8.40953 10.291016,-8.28906 z m 407.523435,0 c 4.70762,-0.12047 9.36092,3.3312 10.29102,8.28906 0.74656,3.97953 -0.14063,5.71175 -8.25196,16.125 -5.0817,6.52386 -6.35742,8.8752 -6.35742,11.71875 0,5.99302 2.0352,6.67969 19.84375,6.67969 h 15.38867 l 2.92969,2.92969 c 4.12539,4.12537 4.12539,10.05821 0,14.18359 l -2.92969,2.92969 H 476.7793 c -14.27538,0 -15.7843,0.17297 -17.61719,2.00586 -3.6341,3.6341 -2.62457,7.43415 4.35351,16.39258 3.4967,4.48902 6.92142,9.22317 7.60938,10.52148 2.55349,4.81885 -0.92374,11.87547 -6.7168,13.63281 -5.56742,1.68889 -8.31928,-0.69421 -23.68554,-20.50781 -8.09997,-10.44427 -15.70898,-19.6776 -16.90821,-20.51758 -1.15408,-0.80835 -4.87051,-1.19542 -19.69336,-1.37695 a 147.60206,147.60206 0 0 0 0.52149,-10.41406 147.60206,147.60206 0 0 0 -0.35156,-9.9336 c 14.66318,-0.18254 18.3743,-0.56816 19.52343,-1.37304 1.19923,-0.83998 8.79088,-10.05191 16.8711,-20.47071 9.57858,-12.35083 15.69365,-19.35823 17.56836,-20.13476 1.04701,-0.43369 2.13628,-0.65189 3.22265,-0.67969 z m -92.91601,149.15234 12.92187,12.92578 4.51367,-0.006 c 2.48284,-0.002 13.30771,-1.12654 24.05664,-2.5 10.74894,-1.37348 21.04503,-2.49995 22.87891,-2.50196 7.87612,-0.01 12.36366,10.94689 6.77344,16.53711 -2.80931,2.80931 -3.64635,3.04648 -17.50781,4.93359 -11.42831,1.55588 -13.48047,2.71234 -13.48047,7.60743 0,2.60876 1.65268,4.79429 10.08008,13.32812 10.6621,10.79678 12.30273,13.07549 12.30273,17.08008 0,6.02881 -8.7911,11.3881 -14.17578,8.64258 -1.29831,-0.66198 -6.95254,-5.73935 -12.56641,-11.28321 -8.53383,-8.42738 -10.71936,-10.07812 -13.32812,-10.07812 -4.89509,0 -6.05156,2.05021 -7.60742,13.47852 -1.88713,13.86146 -2.12429,14.70046 -4.9336,17.50976 -5.59022,5.59022 -16.54713,1.10073 -16.53711,-6.77539 0.002,-1.83388 1.12849,-12.12802 2.50195,-22.87695 1.37348,-10.74894 2.49801,-21.57957 2.5,-24.06836 l 0.004,-4.52539 L 354,368.67188 a 147.60206,147.60206 0 0 0 14.56055,-14.48243 z M 146.2168,354.8418 a 147.60206,147.60206 0 0 0 14.50586,14.5332 l -12.25196,12.24219 0.004,4.52539 c 0.002,2.48879 1.12847,13.31942 2.50195,24.06836 1.37348,10.74893 2.49995,21.04307 2.50196,22.87695 0.01,7.87612 -10.94689,12.36561 -16.53711,6.77539 -2.80931,-2.8093 -3.04648,-3.6483 -4.9336,-17.50976 -1.55587,-11.42831 -2.71428,-13.47852 -7.60937,-13.47852 -2.60876,0 -4.79234,1.65074 -13.32617,10.07812 -10.89617,10.76028 -13.061462,12.30469 -17.257817,12.30469 -3.594986,0 -9.486328,-5.8933 -9.486328,-9.48828 0,-4.19636 1.542472,-6.35969 12.302734,-17.25586 8.427401,-8.53383 10.080081,-10.71936 10.080081,-13.32812 0,-4.89509 -2.05021,-6.05155 -13.478518,-7.60743 -13.861459,-1.88711 -14.70045,-2.12428 -17.509766,-4.93359 -5.590219,-5.59022 -1.100729,-16.54713 6.775391,-16.53711 1.833894,0.002 12.128013,1.12848 22.876953,2.50196 10.74894,1.37346 21.57575,2.49994 24.05859,2.50195 l 4.51368,0.004 z m 101.3164,49.91406 a 147.60206,147.60206 0 0 0 9.50782,0.47461 147.60206,147.60206 0 0 0 10.85351,-0.41992 c 0.18467,14.32567 0.57168,18.02161 1.36914,19.16015 0.83998,1.19923 10.0519,8.79284 20.47071,16.87305 12.35082,9.57858 19.35823,15.6917 20.13476,17.56641 2.313,5.58406 -1.50739,12.36893 -7.60937,13.51367 -3.97954,0.74656 -5.71175,-0.13868 -16.125,-8.25 -6.45781,-5.03025 -8.89167,-6.35938 -11.6543,-6.35938 -5.71071,0 -6.18477,1.39095 -6.74414,19.78321 l -0.5,16.47656 -2.8125,2.41601 c -4.12753,3.54712 -9.95936,3.32972 -13.80274,-0.51367 l -2.92968,-2.92968 v -15.61133 c 0,-14.27538 -0.17102,-15.78235 -2.00391,-17.61524 -3.6341,-3.6341 -7.43415,-2.62458 -16.39258,4.35352 -4.48902,3.4967 -9.22512,6.91946 -10.52344,7.60742 -4.81885,2.55349 -11.87351,-0.92178 -13.63086,-6.71484 -1.68888,-5.56742 0.69421,-8.32124 20.50782,-23.6875 10.44427,-8.09997 19.67564,-15.70898 20.51562,-16.90821 0.79858,-1.14014 1.18479,-4.8387 1.36914,-19.21484 z" />
</svg>
