<?xml version="1.0" encoding="UTF-8" standalone="no"?>
<!-- Created with Inkscape (http://www.inkscape.org/) -->

<svg
   xmlns:dc="http://purl.org/dc/elements/1.1/"
   xmlns:cc="http://creativecommons.org/ns#"
   xmlns:rdf="http://www.w3.org/1999/02/22-rdf-syntax-ns#"
   xmlns:svg="http://www.w3.org/2000/svg"
   xmlns="http://www.w3.org/2000/svg"
   xmlns:sodipodi="http://sodipodi.sourceforge.net/DTD/sodipodi-0.dtd"
   xmlns:inkscape="http://www.inkscape.org/namespaces/inkscape"
   version="1.1"
   id="svg1531"
   width="512"
   height="512"
   viewBox="0 0 512 512"
   sodipodi:docname="auto.svg"
   inkscape:version="0.92.5 (2060ec1f9f, 2020-04-08)">
  <metadata
     id="metadata1537">
    <rdf:RDF>
      <cc:Work
         rdf:about="">
        <dc:format>image/svg+xml</dc:format>
        <dc:type
           rdf:resource="http://purl.org/dc/dcmitype/StillImage" />
        <dc:title></dc:title>
      </cc:Work>
    </rdf:RDF>
  </metadata>
  <defs
     id="defs1535" />
  <sodipodi:namedview
     pagecolor="#ffffff"
     bordercolor="#666666"
     borderopacity="1"
     objecttolerance="10"
     gridtolerance="10"
     guidetolerance="10"
     inkscape:pageopacity="0"
     inkscape:pageshadow="2"
     inkscape:window-width="1280"
     inkscape:window-height="655"
     id="namedview1533"
     showgrid="false"
     inkscape:zoom="0.6159563"
     inkscape:cx="194.9731"
     inkscape:cy="286.80054"
     inkscape:window-x="0"
     inkscape:window-y="0"
     inkscape:window-maximized="1"
     inkscape:current-layer="svg1531" />
  <path
     inkscape:connector-curvature="0"
     id="path1555"
     d="M 230.86259,510.91116 C 185.48394,506.11527 140.62606,488.62079 104.4985,461.62943 92.693419,452.80971 74.886819,436.96526 69.435329,430.42996 l -3.78735,-4.54031 -0.58313,5.89474 c -1.09819,11.10141 -8.1949,21.20298 -18.41687,26.21485 -7.17888,3.51983 -19.82112,3.51983 -27,0 -6.36475,-3.12067 -12.4253904,-9.17075 -15.5523904,-15.52532 L 1.6479786,437.5 V 383 328.5 l 2.69469,-5.1076 c 3.53203,-6.69472 11.4995104,-13.7753 18.0850704,-16.07192 4.78982,-1.67037 9.50783,-1.82048 57.22024,-1.82048 h 52.000011 l 5.5,2.59433 c 11.38817,5.37175 18.19021,15.33255 18.8339,27.58006 0.72643,13.82171 -5.43065,24.53922 -17.51713,30.49177 -6.50184,3.20213 -7.34034,3.35359 -21.22414,3.83384 l -14.45487,0.5 7.51715,9 c 17.15868,20.54344 37.34036,36.31659 62.18151,48.59845 52.23039,25.82353 114.37564,26.10479 167.64078,0.75871 41.8332,-19.90621 74.05122,-53.43365 93.05507,-96.83704 3.91034,-8.93092 6.53012,-13.44415 9.69287,-16.69838 18.62578,-19.16451 51.30061,-8.22345 54.82684,18.3586 0.93826,7.07292 -0.71091,13.56121 -6.96073,27.38547 -37.9184,83.87347 -116.44717,140.31032 -208.59126,149.90983 -11.09845,1.15623 -40.07985,1.11979 -51.28539,-0.0645 z M 381.43403,208.57091 c -15.35024,-4.87622 -23.94954,-17.11186 -23.11995,-32.89652 0.64478,-12.26826 7.49686,-22.28449 18.83391,-27.53101 4.95104,-2.29123 7.02213,-2.58726 20.75,-2.96592 8.3875,-0.23135 15.25,-0.65889 15.25,-0.95007 0,-0.29119 -3.34397,-4.64466 -7.43103,-9.67438 -17.48072,-21.51252 -38.79449,-38.359496 -64.47597,-50.963516 -52.4097,-25.72177 -116.33996,-25.60355 -168.75658,0.31206 -41.61882,20.577006 -72.553841,53.106566 -91.368701,96.078326 -6.194,14.14663 -10.77328,19.6683 -19.70131,23.75569 -15.3062,7.00741 -34.48466,-0.11565 -41.93273,-15.57421 -2.25219,-4.67443 -2.73518,-7.05597 -2.7706,-13.66136 -0.0395,-7.36909 0.33028,-8.86823 4.68913,-19.00923 C 51.209239,86.139034 111.92939,31.787404 183.14798,10.707591 c 27.23861,-8.0622881 42.07012,-10.11045314 73.5,-10.15002014 26.35292,-0.03317 30.90415,0.365049 52.5,4.59364704 35.0842,6.8697001 71.56921,23.3522961 101.51739,45.8618461 11.29414,8.48887 28.89396,24.20547 34.15828,30.50329 l 3.75034,4.48661 1.25542,-6.15457 c 5.06103,-24.81117 36.51724,-34.07202 54.12031,-15.93326 2.19503,2.26183 5.05011,6.24372 6.34462,8.84864 l 2.35365,4.73623 V 132 186.5 l -2.35346,4.73581 c -3.1826,6.40429 -9.49907,12.53428 -16.14654,15.66986 l -5.5,2.59433 -51.5,0.20477 c -40.70512,0.16184 -52.38329,-0.0758 -55.71396,-1.13386 z"
     style="fill:#000000;fill-opacity:1" />
  <path
     inkscape:connector-curvature="0"
     id="path1553"
     d="M 236.14798,511.34235 C 173.95842,505.34419 119.01638,479.80068 76.023479,436.89772 l -10.62451,-10.60229 -0.50922,5.61583 c -2.41156,26.59512 -35.47934,38.35116 -54.46682,19.36369 -2.1610204,-2.16102 -5.0194304,-6.14444 -6.3520404,-8.85204 L 1.6479786,437.5 1.3645486,384.87686 c -0.27889,-51.78109 -0.2489,-52.71717 1.87441,-58.5 2.8975,-7.89132 11.3246904,-16.32233 18.9776704,-18.98626 5.05163,-1.75842 8.99691,-1.8906 56.43135,-1.8906 59.948531,0 57.875761,-0.30172 68.088751,9.91126 7.59272,7.59273 9.80255,13.30887 9.24516,23.91435 -0.65409,12.44544 -7.31075,22.23631 -18.68594,27.48405 -4.99805,2.30576 -7.30802,2.66799 -20.07441,3.14796 l -14.42645,0.54238 4.80485,6 c 24.94715,31.15248 62.14648,55.26571 100.09991,64.88641 19.05708,4.83072 28.6105,5.98268 49.44813,5.96254 21.00379,-0.0203 31.31996,-1.27595 49.5,-6.02499 57.24122,-14.9527 104.12504,-55.9291 127.57413,-111.49962 6.22587,-14.75429 13.48738,-21.36697 25.9576,-23.63825 10.46155,-1.90542 22.50235,2.10241 29.18602,9.71468 5.57745,6.35236 8.28834,13.63401 8.22733,22.09923 -0.049,6.80152 -0.54374,8.61758 -5.31218,19.5 -13.25141,30.24211 -31.03542,56.35496 -54.13289,79.48513 -48.69403,48.76298 -114.14841,75.5577 -182.85596,74.85483 -8.60423,-0.088 -17.21905,-0.31194 -19.14405,-0.49761 z M 382.88246,208.93336 c -14.15933,-3.41641 -23.80262,-15.03768 -24.56838,-29.60775 -0.55762,-10.60989 1.65239,-16.32407 9.24517,-23.90422 8.23265,-8.21897 12.02395,-9.46735 30.83874,-10.15447 8.1125,-0.29627 14.75,-0.73671 14.75,-0.97875 0,-1.11707 -10.22201,-13.56822 -16.99062,-20.6958 -24.18704,-25.469796 -56.54166,-44.608736 -89.56126,-52.978776 -19.05708,-4.83072 -28.6105,-5.98269 -49.44813,-5.96255 -20.83022,0.0201 -30.70082,1.21035 -49.44813,5.96255 -56.65823,14.36213 -105.5767,57.266956 -127.882381,112.161586 -6.42269,15.80632 -17.29633,23.66257 -32.39469,23.40529 -14.10821,-0.24041 -25.67064,-9.41469 -29.80974,-23.65269 -2.54142,-8.74218 -1.46478,-14.59011 5.65631,-30.7231 C 54.864329,80.225594 119.34702,26.172584 195.30304,7.5963769 c 24.16276,-5.909372 34.2757,-7.06370904 61.84494,-7.05926004 27.69891,0.0045 38.91535,1.29131804 62.5,7.17054704 44.50664,11.0947041 85.13909,34.1642701 118.62606,67.3513901 l 10.65445,10.55904 0.58977,-4.30286 c 1.31546,-9.59733 9.58648,-20.17645 19.12973,-24.46804 6.96577,-3.1325 18.03423,-3.1325 25,0 6.26022,2.81521 12.86333,9.14288 16.33419,15.65281 l 2.66581,5 V 132 186.5 l -2.66581,5 c -3.45248,6.47547 -10.0429,12.81088 -16.33419,15.70216 -4.99137,2.29387 -5.08803,2.29814 -56,2.4688 -28.05,0.094 -52.69449,-0.23789 -54.76553,-0.7376 z"
     style="fill:#000000;fill-opacity:1" />
  <path
     inkscape:connector-curvature="0"
     id="path1551"
     d="M 232.64798,510.93926 C 172.50506,504.7071 117.38593,478.51982 75.533709,436.29375 l -10.11588,-10.20625 -0.5231,5.76882 c -1.001,11.03919 -8.24347,21.08342 -18.74675,25.99894 -4.3753,2.04764 -7.03367,2.574 -13,2.574 -12.69892,0 -22.64216,-6.12595 -28.7500904,-17.71269 L 1.6479786,437.5 v -54 c 0,-53.04807 0.0377,-54.08149 2.13733,-58.6224 3.16997,-6.8557 9.0611604,-12.81013 15.8626704,-16.03297 l 6,-2.84305 52.57186,-7.9e-4 c 59.541971,-8.9e-4 58.203051,-0.15549 66.977671,7.73364 2.78361,2.5027 6.26957,6.84879 7.74659,9.65797 2.33359,4.43835 2.68668,6.28688 2.69468,14.1076 0.008,7.3964 -0.40265,9.83615 -2.30231,13.69281 -3.23143,6.56039 -9.38624,12.55056 -16.01249,15.58416 -4.94811,2.26532 -7.39303,2.64935 -20.0631,3.15136 l -14.42832,0.57167 6.14154,7.629 c 8.03269,9.97818 24.78846,25.88261 34.93491,33.15993 50.73188,36.38629 115.44846,46.29717 174.23897,26.68345 27.89355,-9.30587 51.01465,-23.2669 71.78776,-43.34706 20.05813,-19.38903 33.08431,-38.89112 46.95426,-70.29738 2.73652,-6.1964 8.77858,-12.41989 15.06312,-15.51542 3.90802,-1.92495 6.28705,-2.31252 14.19487,-2.31252 8.64702,0 9.97757,0.26455 14.81885,2.9464 15.32062,8.48693 20.46318,25.05143 13.36626,43.0536 -7.93247,20.12166 -23.57079,46.5151 -38.6217,65.18344 -23.65293,29.33783 -58.45952,56.07873 -93.38592,71.74571 -21.34117,9.57304 -45.62337,16.61802 -69.37395,20.12742 -12.52581,1.85082 -47.94791,2.66301 -60.30355,1.38269 z M 383.49174,208.98021 c -9.1871,-1.86541 -18.19017,-8.9721 -22.53124,-17.78534 -1.90077,-3.85893 -2.31088,-6.29736 -2.30331,-13.69487 0.008,-7.79245 0.36494,-9.67625 2.6605,-14.04015 3.05131,-5.80057 10.27924,-12.85924 15.64069,-15.27445 2.78111,-1.25282 7.84278,-1.78807 20.55655,-2.17374 L 414.38187,145.5 409.54771,139 c -7.01835,-9.43686 -27.55193,-29.75325 -37.35566,-36.96053 -76.00274,-55.873946 -180.80622,-49.389256 -247.8429,15.33521 -20.13448,19.44001 -33.295681,39.13305 -46.911171,70.19301 -2.65662,6.06032 -9.04791,12.63806 -15.24985,15.69469 -3.73579,1.84119 -6.22321,2.23762 -14.04015,2.23762 -8.64701,0 -9.97756,-0.26455 -14.81885,-2.9464 -14.88972,-8.24823 -20.39198,-24.98828 -13.80749,-42.00779 7.81163,-20.1914 23.88153,-47.43008 39.12332,-66.314496 3.67055,-4.54778 11.57691,-13.17187 17.56969,-19.16465 C 116.57377,34.707554 166.4979,10.235047 225.64798,1.8153609 c 11.87888,-1.69089204 51.16487,-1.66377104 63.5,0.04384 58.10066,8.043138 109.72487,33.4996161 149.51776,73.7288961 l 10.2367,10.34896 0.65803,-4.1151 c 1.17479,-7.34676 4.59106,-13.6245 10.20778,-18.75786 12.4665,-11.39368 30.29298,-11.39368 42.75948,0 3.28349,3.00091 6.27849,6.93537 7.73846,10.1658 l 2.3818,5.27011 v 53.500003 53.5 l -2.3818,5.27011 c -2.93028,6.48373 -11.22015,14.31752 -17.8327,16.85161 -4.38514,1.68049 -8.96858,1.84934 -54.7855,2.01817 -27.5,0.10133 -51.87031,-0.19552 -54.15625,-0.65968 z"
     style="fill:#000000;fill-opacity:1" />
  <path
     inkscape:connector-curvature="0"
     id="path1549"
     d="M 238.14798,511.37249 C 203.03002,508.08063 172.58353,499.58775 143.14445,484.87177 117.02477,471.81509 97.802629,458.03189 77.039149,437.47109 l -11.60884,-11.49551 -0.55488,5.37625 c -0.79165,7.67039 -4.11391,14.62101 -9.53257,19.94345 -6.68456,6.56587 -12.88892,9.1085 -22.19488,9.09576 -9.74945,-0.0133 -16.16705,-2.75972 -22.77472,-9.74636 C 1.4033286,441.1603 1.6479786,443.07104 1.6479786,382.5 v -53 l 2.77979,-5.66054 c 3.05278,-6.21647 8.3052204,-11.51149 14.9251504,-15.04615 L 23.647979,306.5 h 55 55.000011 l 4.5,2.35602 c 6.13737,3.21329 11.64844,8.65626 14.82719,14.64398 2.30553,4.34286 2.65439,6.18285 2.65439,14 0,7.83114 -0.34877,9.66334 -2.68547,14.1076 -3.39827,6.46327 -11.40557,13.71176 -17.55191,15.88858 -3.12574,1.10704 -9.43493,1.86844 -18.4942,2.2319 -7.5625,0.30341 -13.75,0.77612 -13.75,1.05047 0,1.32765 11.90425,14.75878 20.67115,23.32252 54.12377,52.86949 135.14142,68.33963 206.5912,39.44813 23.60239,-9.54388 42.16155,-22.01488 61.83252,-41.54895 17.87743,-17.753 26.35541,-29.78261 38.50758,-54.63929 8.07431,-16.51563 10.04581,-19.75846 14.38301,-23.65798 15.65179,-14.0723 40.8115,-8.49389 49.75011,11.03061 2.03373,4.44224 2.58995,7.20413 2.56176,12.72033 -0.0422,8.2528 -2.71847,15.66099 -12.83555,35.52977 -24.57525,48.26296 -64.35589,87.48403 -113.53619,111.93914 -35.55384,17.67929 -68.91115,25.80098 -108.9256,26.52073 -10.725,0.19291 -21.525,0.16093 -24,-0.0711 z M 385.14799,209.03042 c -10.19662,-1.79876 -18.95902,-8.22993 -23.8303,-17.49027 -2.29866,-4.36978 -2.65129,-6.2372 -2.65129,-14.04015 0,-7.81715 0.34886,-9.65714 2.65439,-14 3.18581,-6.00102 8.70591,-11.44589 14.8272,-14.62515 4.04013,-2.09836 6.22263,-2.39022 21.35676,-2.85603 L 414.36152,145.5 409.62851,139 c -7.05298,-9.68611 -29.6643,-31.59562 -40.48052,-39.224096 -23.99726,-16.92481 -49.46332,-27.55957 -79.00001,-32.9908 -16.64759,-3.06118 -49.558,-3.07094 -66,-0.0196 -41.07028,7.62195 -73.04212,24.2886 -102.07529,53.210966 -19.36931,19.29539 -29.659871,34.44304 -42.337691,62.32086 -4.01728,8.83378 -5.87461,11.67875 -10.21313,15.6439 -6.27865,5.73834 -12.33721,8.05875 -21.0413,8.05875 -12.57827,0 -22.94743,-6.40963 -28.44947,-17.58585 -2.72656,-5.53844 -3.21399,-7.62869 -3.20031,-13.72385 0.0191,-8.49597 2.08031,-14.26124 12.4027,-34.6903 C 53.950959,91.081604 93.337099,52.026034 142.97539,27.212764 167.9386,14.734102 194.84194,6.3257509 222.64798,2.3119389 c 18.14805,-2.61967804 53.48181,-2.36859504 72,0.511635 28.00769,4.35618 51.30389,11.7533541 76.4256,24.2672001 26.32785,13.11466 45.13691,26.59719 66.19308,47.44789 l 11.61868,11.5053 0.66191,-4.27199 c 1.67398,-10.80382 10.85904,-22.03632 20.68961,-25.30151 6.42225,-2.13313 15.40001,-2.13313 21.82226,0 6.71251,2.22954 14.27374,9.1695 17.78851,16.3269 l 2.80036,5.70262 v 53.499996 53.5 l -2.80036,5.70261 c -3.36826,6.85906 -10.87243,13.91546 -17.45544,16.41389 -4.30499,1.63385 -9.28058,1.8194 -53.7442,2.00415 -26.95,0.11199 -51.025,-0.15362 -53.5,-0.59023 z"
     style="fill:#000000;fill-opacity:1" />
  <path
     inkscape:connector-curvature="0"
     id="path1547"
     d="M 235.14798,510.90811 C 193.19684,507.30099 150.69073,492.41275 115.64799,469.05192 100.82343,459.16931 91.928189,451.86384 77.534379,437.75008 l -12.1136,-11.87792 -0.65789,5.81392 c -0.89029,7.86765 -4.39062,14.96821 -9.84902,19.9791 -5.6626,5.19835 -8.74172,6.79244 -16.01589,8.29159 -14.26365,2.93962 -30.0443004,-5.77371 -35.3442104,-19.51542 -1.78825,-4.63661 -1.90579,-8.20994 -1.90579,-57.94135 v -53 l 2.80555,-5.71391 c 3.45468,-7.03596 10.0795604,-13.03818 17.4234904,-15.7859 5.36587,-2.00763 7.03668,-2.05843 58.64709,-1.78335 l 53.123881,0.28316 5.06346,2.67232 c 6.06165,3.19913 11.87997,9.37991 14.78426,15.70528 1.60543,3.49653 2.11984,6.57094 2.11197,12.6224 -0.0136,10.44167 -2.69604,16.68744 -10.05598,23.41401 C 138.02325,367.79459 133.76243,369 116.96985,369 c -9.43176,0 -13.82186,0.35132 -13.82186,1.1061 0,2.99933 20.54675,25.03592 32.5,34.85657 63.49916,52.17015 157.26258,57.3415 225.77896,12.45243 32.37973,-21.21384 55.81999,-48.96469 72.21863,-85.4994 6.15902,-13.72175 9.98565,-18.53803 18.00241,-22.65825 6.4576,-3.31888 17.27088,-4.20499 23.87093,-1.95613 18.91222,6.44404 26.58668,25.16639 18.57903,45.32477 -7.24055,18.22728 -19.94506,40.50155 -33.24438,58.28591 -10.35527,13.84747 -35.75999,39.00254 -50.20558,49.71223 -51.27666,38.01553 -112.88594,55.66769 -175.50001,50.28388 z M 378.21166,207.27561 C 371.54881,204.92292 362.9379,195.9601 360.17323,188.5 c -5.46871,-14.75663 1.23845,-31.86764 15.4113,-39.31662 4.79497,-2.52015 5.95162,-2.67957 21.81346,-3.00661 9.2125,-0.18994 16.75,-0.58025 16.75,-0.86736 0,-1.72128 -14.40223,-18.40614 -23.62971,-27.37481 -24.62433,-23.933666 -52.28581,-39.474456 -85.3703,-47.962786 -28.91926,-7.41967 -63.63979,-7.80446 -92.04495,-1.02007 -33.89953,8.09668 -63.88979,24.46051 -88.59484,48.340716 -19.58332,18.92948 -32.418091,37.3052 -43.857801,62.79184 -3.58439,7.9857 -6.88554,13.76142 -9.28252,16.24078 -10.64282,11.00856 -27.79541,12.77935 -40.81375,4.21351 -13.06607,-8.59726 -17.04495,-24.30256 -10.40388,-41.06584 4.85683,-12.25954 15.73192,-32.81969 23.58522,-44.58959 24.41597,-36.592696 58.531621,-67.022986 97.285561,-86.776206 73.45876,-37.4425881 159.86579,-37.1885901 233.57091,0.68659 23.83287,12.24711 40.73619,24.57956 61.70599,45.01994 l 12.64994,12.33056 0.69952,-4.32202 c 1.71369,-10.5881 8.3228,-19.39165 18.00061,-23.9774 12.3245,-5.83985 27.8829,-2.83189 36.86267,7.12681 2.12447,2.35607 4.82447,6.36384 6,8.90616 2.09887,4.53923 2.13733,5.58504 2.13733,58.122406 0,52.53736 -0.0385,53.58317 -2.13733,58.1224 -3.16996,6.8557 -9.06116,12.81013 -15.86267,16.03297 l -6,2.84305 -53,-0.0782 c -45.41766,-0.067 -53.63468,-0.30226 -57.43633,-1.64465 z"
     style="fill:#000000;fill-opacity:1" />
  <path
     inkscape:connector-curvature="0"
     id="path1545"
     d="M 236.14798,510.96881 C 191.20646,506.69518 152.32308,493.16674 115.99026,469.16314 101.43004,459.5438 91.508139,451.4469 77.539099,437.78457 l -12.10888,-11.84302 -0.66432,5.77923 c -2.36823,20.60239 -22.59166,33.43909 -42.33816,26.87386 -6.91232,-2.29818 -14.4193504,-9.14243 -17.9793904,-16.39203 L 1.6479786,436.5 v -53.02052 -53.02051 l 3.292,-6.68751 c 3.87335,-7.8685 9.2794304,-12.90619 16.9161704,-15.76346 5.11845,-1.91506 7.74706,-2.008 56.79183,-2.008 49.257621,0 51.654031,0.0857 56.859591,2.03335 7.2605,2.7165 13.89234,8.74307 17.33427,15.75221 3.67767,7.4892 3.96648,19.12217 0.65387,26.33684 -3.14118,6.8413 -9.0365,12.80554 -15.84772,16.03297 -5.74923,2.72423 -6.61648,2.84309 -20.75,2.84384 -8.1125,4.3e-4 -14.75001,0.26117 -14.75001,0.5794 0,1.32239 12.83886,16.14778 20.86376,24.09197 40.15265,39.74881 98.68152,59.78749 155.63624,53.28558 69.85856,-7.97501 128.27995,-51.85895 156.01754,-117.19449 4.35952,-10.26877 9.71115,-16.79195 16.85912,-20.5498 4.46847,-2.34917 6.27375,-2.69209 14.12335,-2.6828 10.49892,0.0124 15.87528,2.0815 22.42329,8.62951 6.54086,6.54087 8.57671,11.84403 8.57671,22.34142 0,10.32567 -1.92909,15.87938 -12.67503,36.49058 -11.84726,22.72357 -25.35867,41.34429 -43.81471,60.38317 -40.0595,41.32457 -92.38946,67.62054 -149.51027,75.12939 -14.81214,1.94714 -41.80354,2.67302 -54.5,1.46567 z M 376.64799,206.1732 c -6.80985,-3.24702 -12.71494,-9.22777 -15.84773,-16.0508 -3.31261,-7.21467 -3.0238,-18.84764 0.65387,-26.33684 3.44193,-7.00914 10.07378,-13.03571 17.33428,-15.75221 4.57498,-1.71172 7.8013,-2.03335 20.39709,-2.03335 8.22937,0 14.96249,-0.34234 14.96249,-0.76076 0,-0.41842 -3.22822,-4.77212 -7.17382,-9.6749 -36.83292,-45.768366 -90.83905,-71.564336 -149.82619,-71.564336 -78.24376,0 -146.6694,45.575966 -177.517531,118.238326 -4.35951,10.26877 -9.71114,16.79195 -16.85912,20.5498 -4.46847,2.34917 -6.27374,2.69209 -14.12335,2.6828 -10.49892,-0.0124 -15.87527,-2.0815 -22.42329,-8.62951 -5.78681,-5.78682 -8.46145,-11.96903 -8.9152,-20.60679 -0.46378,-8.82864 0.80454,-13.10391 8.95732,-30.19341 C 46.231059,104.193 77.870189,67.919034 116.69013,42.371734 149.98536,20.460228 186.57456,7.1088259 227.64798,1.8832049 c 12.8735,-1.63784804 46.1265,-1.63784804 59,0 41.22624,5.245063 76.92393,18.1951911 110.03419,39.9173391 16.03502,10.51985 25.60191,18.25984 40.11612,32.45549 l 12.15031,11.88363 0.71103,-4.31983 c 1.67598,-10.18227 8.10356,-18.90957 17.6933,-24.02376 3.60856,-1.92444 5.81349,-2.29099 13.79506,-2.29331 8.66402,-0.002 9.97127,0.25827 14.85541,2.96353 7.53547,4.17382 12.72606,10.43884 15.14968,18.28562 1.8777,6.07928 1.99491,9.32535 1.99491,55.248086 0,45.92273 -0.11721,49.16881 -1.99491,55.24809 -2.42362,7.84678 -7.61421,14.1118 -15.14968,18.28561 l -5.35541,2.9663 -54,0.26703 -54,0.26704 z"
     style="fill:#000000;fill-opacity:1" />
  <path
     inkscape:connector-curvature="0"
     id="path1543"
     d="M 242.14798,511.36542 C 177.42196,506.55532 121.82432,481.51944 76.545739,436.79393 l -11.10224,-10.96663 -0.65693,4.83635 c -1.10065,8.10303 -3.54471,13.94812 -7.90218,18.89847 -12.38528,14.07042 -35.08753,14.07042 -47.4728104,0 -7.84252,-8.90957 -7.7636,-8.22682 -7.7636,-67.16339 v -52.10127 l 3.5,-6.86109 c 2.5341,-4.96762 4.8798704,-7.91222 8.5000004,-10.66991 9.01792,-6.86953 9.01907,-6.86964 67.12461,-6.55097 50.568631,0.27734 51.991841,0.33835 56.497801,2.42184 6.63743,3.06904 12.39829,8.68542 15.5932,15.20213 3.61816,7.37999 3.88657,19.04276 0.60489,26.28294 -2.86117,6.31244 -8.68453,12.50363 -14.75703,15.68918 -4.74294,2.48807 -6.06044,2.67862 -20.81346,3.01017 -8.6625,0.19468 -15.75001,0.60216 -15.75001,0.90552 0,1.30163 12.06232,15.41634 19.47038,22.78324 58.29188,57.96809 148.05263,72.21412 222.02962,35.23856 41.53125,-20.75836 73.34398,-55.35436 92.00676,-100.05638 3.63661,-8.71058 9.06856,-14.84585 16.27881,-18.38654 4.91211,-2.41215 6.90788,-2.80418 14.21444,-2.79212 7.26624,0.012 9.24136,0.40312 13.6076,2.69468 6.47794,3.39987 13.74183,11.43373 15.80037,17.47523 2.90356,8.52146 2.1369,16.43747 -2.75054,28.40032 -33.81873,82.77717 -113.48974,143.23517 -203.57121,154.47911 -12.04931,1.50399 -37.82353,2.49041 -47.08623,1.80205 z M 381.14799,208.06487 c -8.7195,-2.66196 -16.51392,-9.54423 -20.3205,-17.94247 -2.92808,-6.46005 -2.92808,-18.78475 0,-25.2448 2.99019,-6.59709 8.61382,-12.38314 15.15996,-15.59782 5.36473,-2.63452 6.50972,-2.79734 21.91054,-3.11582 8.9375,-0.18482 16.25,-0.64683 16.25,-1.02668 0,-1.54458 -13.89332,-18.16009 -21.44581,-25.64779 C 356.63592,83.732604 308.89939,64.081824 257.9492,64.018324 179.51941,63.920564 111.68474,108.35766 80.422659,180.31226 c -5.59978,12.88879 -10.10911,18.47708 -18.06024,22.38159 -4.9121,2.41215 -6.90788,2.80418 -14.21444,2.79212 -7.26624,-0.012 -9.24135,-0.40312 -13.60759,-2.69468 -6.47795,-3.39987 -13.74184,-11.43373 -15.80038,-17.47523 -2.91066,-8.54232 -2.13901,-16.43227 2.78617,-28.48773 C 45.885069,97.204534 97.068229,45.857784 157.29596,20.624599 189.74605,7.0292139 221.19629,0.70819686 256.64798,0.65636086 c 41.35957,-0.06048 76.83678,8.05531804 113.12175,25.87781314 25.24156,12.39819 46.2451,27.4057 67.52505,48.24819 l 11.64679,11.40737 1.09974,-5.1279 c 2.20616,-10.28697 7.63178,-17.82037 16.28783,-22.61543 4.84128,-2.68185 6.17183,-2.9464 14.81885,-2.9464 8.64702,0 9.97757,0.26455 14.81885,2.9464 6.4761,3.58746 10.63992,8.17356 14.08004,15.50797 l 2.60111,5.54563 v 52.521026 52.52102 l -3.292,6.687 c -3.87338,7.86795 -9.27983,12.90583 -16.91617,15.76295 -5.13182,1.92006 -7.6315,2.00424 -57.07934,1.92205 -28.44187,-0.0473 -52.83749,-0.42941 -54.21249,-0.84918 z"
     style="fill:#000000;fill-opacity:1" />
  <text
     xml:space="preserve"
     style="font-style:normal;font-weight:normal;font-size:40px;line-height:1.25;font-family:sans-serif;letter-spacing:0px;word-spacing:0px;fill:#000000;fill-opacity:1;stroke:none"
     x="189.41704"
     y="229.59641"
     id="text1566"><tspan
       sodipodi:role="line"
       id="tspan1564"
       x="189.41704"
       y="265.99142"></tspan></text>
  <text
     xml:space="preserve"
     style="font-style:normal;font-variant:normal;font-weight:bold;font-stretch:normal;font-size:277.53305054px;line-height:1.25;font-family:sans-serif;-inkscape-font-specification:'sans-serif, Bold';font-variant-ligatures:normal;font-variant-caps:normal;font-variant-numeric:normal;font-feature-settings:normal;text-align:start;letter-spacing:0px;word-spacing:0px;writing-mode:lr-tb;text-anchor:start;fill:#000000;fill-opacity:1;stroke:none;stroke-width:1.44548464"
     x="160.71748"
     y="347.17471"
     id="text1570"><tspan
       sodipodi:role="line"
       id="tspan1568"
       x="160.71748"
       y="347.17471"
       style="stroke-width:1.44548464">A</tspan></text>
</svg>
