<?xml version="1.0" encoding="UTF-8" standalone="no"?>
<!-- Created with Inkscape (http://www.inkscape.org/) -->

<svg
   xmlns:dc="http://purl.org/dc/elements/1.1/"
   xmlns:cc="http://creativecommons.org/ns#"
   xmlns:rdf="http://www.w3.org/1999/02/22-rdf-syntax-ns#"
   xmlns:svg="http://www.w3.org/2000/svg"
   xmlns="http://www.w3.org/2000/svg"
   xmlns:sodipodi="http://sodipodi.sourceforge.net/DTD/sodipodi-0.dtd"
   xmlns:inkscape="http://www.inkscape.org/namespaces/inkscape"
   version="1.1"
   id="svg35"
   width="266.66666"
   height="266.66666"
   viewBox="0 0 266.66666 266.66666"
   sodipodi:docname="heated_seat.svg"
   inkscape:version="0.92.5 (2060ec1f9f, 2020-04-08)">
  <metadata
     id="metadata41">
    <rdf:RDF>
      <cc:Work
         rdf:about="">
        <dc:format>image/svg+xml</dc:format>
        <dc:type
           rdf:resource="http://purl.org/dc/dcmitype/StillImage" />
        <dc:title />
      </cc:Work>
    </rdf:RDF>
  </metadata>
  <defs
     id="defs39" />
  <sodipodi:namedview
     pagecolor="#ffffff"
     bordercolor="#666666"
     borderopacity="1"
     objecttolerance="10"
     gridtolerance="10"
     guidetolerance="10"
     inkscape:pageopacity="0"
     inkscape:pageshadow="2"
     inkscape:window-width="1280"
     inkscape:window-height="655"
     id="namedview37"
     showgrid="false"
     inkscape:zoom="1.2515791"
     inkscape:cx="146.24481"
     inkscape:cy="123.23252"
     inkscape:window-x="0"
     inkscape:window-y="0"
     inkscape:window-maximized="1"
     inkscape:current-layer="g45" />
  <g
     id="g45"
     transform="translate(1.1299419,0.2598869)"
     style="fill:#000000">
    <path
       style="fill:#000000;stroke-width:1.33333325"
       d="m 53.420536,258.9535 c -16.26654,-2.0919 -28.72742,-12.68432 -38.77467,-32.96052 -5.2617296,-10.6186 -5.6746896,-12.23554 -5.6914396,-22.28486 -0.0151,-9.02992 0.55057,-11.94113 3.3943096,-17.47031 3.77135,-7.33274 9.48841,-11.8715 17.78901,-14.12266 4.3605,-1.18259 8.6996,-0.97988 21.46528,1.00282 12.45582,1.93459 23.23604,2.47538 48.666664,2.44135 17.96667,-0.024 34.81056,-0.48132 37.43087,-1.01619 4.56792,-0.9324 4.99845,-1.53489 10.44955,-14.62296 14.93154,-35.85057 39.25892,-97.151517 46.15065,-116.291931 8.57041,-23.80262 11.9957,-29.880738 19.88306,-35.2820876 6.77775,-4.641477 9.66599,-5.548903 17.86364,-5.612403 7.78471,-0.0603 13.61991,2.675495 17.5857,8.2449286 6.14092,8.624126 6.20569,8.232362 -16.1983,97.957683 -19.33133,77.41969 -30.48249,118.2082 -34.18772,125.0512 -7.21053,13.31673 -21.22633,22.41149 -38.35215,24.88646 -10.44695,1.50976 -95.861474,1.57292 -107.474454,0.0795 z M 17.8796,132.35352 c 1.08233,-14.585 3.67422,-22.85062 9.18376,-29.28728 5.55704,-6.492152 8.68208,-13.332202 8.68208,-19.003234 0,-3.827737 -0.28374,-4.042822 -5.33333,-4.042822 -2.93333,0 -5.33333,-0.309227 -5.33333,-0.68717 0,-0.377942 3.650274,-7.968993 8.11171,-16.869006 l 8.1117,-16.181838 3.35455,5.869006 c 4.168145,7.292444 13.75537,26.231316 13.75537,27.172745 0,0.382944 -2.33323,0.696263 -5.18495,0.696263 -4.94608,0 -5.2255,0.230337 -6.06534,5.000002 -1.74558,9.913542 -4.86014,17.182514 -10.05674,23.471124 -6.2682,7.58538 -8.00884,13.05453 -8.01887,25.19554 l -0.007,9 h -5.98299 -5.983 z m 46.16881,-2 c 0.75138,-13.9075 2.78707,-19.81356 9.76409,-28.32809 4.30786,-5.257182 8.59961,-15.346812 8.59961,-20.217154 0,-1.230784 -1.87327,-1.788092 -6.01028,-1.788092 h -6.01028 l 8.02056,-16 c 4.411306,-8.799996 8.49105,-16 9.0661,-16 1.21184,0 16.26723,28.209528 16.26723,30.480165 0,0.875821 -2.18715,1.519835 -5.161556,1.519835 h -5.16156 l -0.883714,6.661734 c -1.090775,8.22263 -4.72424,16.260132 -10.67521,23.614282 -4.92301,6.08381 -7.45129,14.83444 -7.45129,25.78961 v 6.60104 H 68.8971 63.38209 Z m 45.71259,1.33333 c 1.14621,-14.56768 3.56983,-21.74038 9.95814,-29.47112 5.14366,-6.224552 8.00369,-13.070862 8.01886,-19.195546 0.006,-2.612351 -0.68172,-3 -5.32589,-3 -2.93334,0 -5.33334,-0.309227 -5.33334,-0.68717 0,-0.377942 3.6536,-7.975632 8.11911,-16.883753 l 8.11909,-16.196586 3.99011,7.217088 c 5.32694,9.635063 13.10503,24.977837 13.10503,25.850469 0,0.384973 -2.33323,0.699952 -5.18495,0.699952 -4.94609,0 -5.22551,0.230337 -6.06535,5.000002 -1.74557,9.913542 -4.86013,17.182514 -10.05674,23.471124 -6.26819,7.58538 -8.00883,13.05453 -8.01886,25.19554 l -0.007,9 h -6.09163 -6.09163 z"
       id="path47"
       inkscape:connector-curvature="0"
       sodipodi:nodetypes="csccscccsssssssscccssssscsssssccccccssscsssscssscccccscssccsssssccccc" />
  </g>
</svg>
