<?xml version="1.0" encoding="UTF-8" standalone="no"?>
<!-- Created with Inkscape (http://www.inkscape.org/) -->

<svg
   xmlns:dc="http://purl.org/dc/elements/1.1/"
   xmlns:cc="http://creativecommons.org/ns#"
   xmlns:rdf="http://www.w3.org/1999/02/22-rdf-syntax-ns#"
   xmlns:svg="http://www.w3.org/2000/svg"
   xmlns="http://www.w3.org/2000/svg"
   xmlns:sodipodi="http://sodipodi.sourceforge.net/DTD/sodipodi-0.dtd"
   xmlns:inkscape="http://www.inkscape.org/namespaces/inkscape"
   version="1.1"
   id="svg35"
   width="266.66666"
   height="266.66666"
   viewBox="0 0 266.66666 266.66666"
   sodipodi:docname="heated_seat_1.svg"
   inkscape:version="0.92.5 (2060ec1f9f, 2020-04-08)">
  <metadata
     id="metadata41">
    <rdf:RDF>
      <cc:Work
         rdf:about="">
        <dc:format>image/svg+xml</dc:format>
        <dc:type
           rdf:resource="http://purl.org/dc/dcmitype/StillImage" />
        <dc:title></dc:title>
      </cc:Work>
    </rdf:RDF>
  </metadata>
  <defs
     id="defs39" />
  <sodipodi:namedview
     pagecolor="#ffffff"
     bordercolor="#666666"
     borderopacity="1"
     objecttolerance="10"
     gridtolerance="10"
     guidetolerance="10"
     inkscape:pageopacity="0"
     inkscape:pageshadow="2"
     inkscape:window-width="1280"
     inkscape:window-height="655"
     id="namedview37"
     showgrid="false"
     inkscape:zoom="0.62578953"
     inkscape:cx="-32.365293"
     inkscape:cy="130.56839"
     inkscape:window-x="0"
     inkscape:window-y="0"
     inkscape:window-maximized="1"
     inkscape:current-layer="svg35" />
  <g
     id="g45"
     transform="matrix(0.69536459,0,0,0.99988897,-1.8753931,0.2890525)"
     style="fill:#000000">
    <path
       style="fill:#000000;stroke-width:1.33333325"
       d="m 49.333332,261.41982 c -17.616974,-5.37825 -35.03929,-27.35849 -38.808685,-48.96157 -3.4816021,-19.95369 6.380021,-36.23973 23.978701,-39.59979 2.47955,-0.47341 10.568724,0.1891 18,1.4742 18.56629,3.21071 87.647532,3.46522 90.658932,0.334 3.38606,-3.52078 41.71085,-97.893379 52.71744,-129.813692 8.60889,-24.966715 13.15874,-31.965006 24.52689,-37.7256804 5.63306,-2.8544948 8.0939,-3.3211716 15.14529,-2.8721737 13.55595,0.8631777 21.15617,8.7610071 20.87435,21.6917131 -0.19931,9.144644 -35.88582,154.316213 -49.05371,199.548923 -5.08097,17.45352 -17.46422,29.747 -35.28121,35.02542 -6.18353,1.83192 -15.44011,2.12874 -63.33333,2.03089 -30.850237,-0.063 -57.591335,-0.57255 -59.424668,-1.13224 z M 26.943678,146.33333 c 0.517069,-11.2784 1.228441,-14.84631 4.070764,-20.41709 1.894311,-3.71273 4.430568,-7.56903 5.636128,-8.56955 2.984274,-2.47673 5.693665,-7.97145 7.169514,-14.53997 l 1.229788,-5.473389 h -5.112913 c -2.812103,0 -5.48414,-0.600655 -5.937859,-1.334788 -1.068127,-1.728267 15.245256,-33.338753 17.190564,-33.310198 2.089941,0.03068 18.657434,32.003937 17.279526,33.347399 -0.624722,0.609104 -3.191969,1.30024 -5.704994,1.535858 -4.374419,0.41014 -4.635545,0.740912 -6.127468,7.761728 -2.109908,9.929 -3.73598,13.54798 -8.551812,19.03291 -6.197917,7.05904 -8.084917,12.8763 -8.084917,24.92426 V 160 h -6.841441 -6.841441 z m 45.471739,1.33333 c 1.018149,-15.55615 2.527458,-20.1593 9.790892,-29.86059 5.238633,-6.99691 8.431929,-14.10136 8.452919,-18.806072 0.0047,-1.056795 -1.944153,-1.666667 -5.325897,-1.666667 -4.203741,0 -5.325958,-0.494196 -5.29851,-2.333333 0.04672,-3.130563 14.892087,-31.343514 16.820762,-31.9671 1.637808,-0.529541 17.811077,28.708429 17.811077,32.198793 0,1.551248 -1.3513,2.10164 -5.15986,2.10164 h -5.15986 L 102.81688,105 c -1.50164,7.52426 -3.703862,11.97165 -11.271621,22.76307 -4.524277,6.4515 -6.137317,12.69046 -6.180118,23.90359 L 85.333331,160 h -6.862565 -6.862565 z m 46.508183,-1.33333 c 0.4687,-11.45097 1.12485,-14.76107 4.04722,-20.41709 1.9183,-3.71273 4.47419,-7.56903 5.67975,-8.56955 2.98427,-2.47673 5.69367,-7.97145 7.16951,-14.53997 l 1.2298,-5.473389 h -5.11292 c -2.81211,0 -5.47702,-0.589128 -5.92203,-1.309173 -1.09035,-1.764216 15.11404,-33.364936 17.09092,-33.329573 2.12361,0.03799 18.73605,32.004114 17.33944,33.365061 -0.61157,0.595958 -3.16807,1.276338 -5.68109,1.511956 -4.382,0.410849 -4.63084,0.728756 -6.07559,7.761728 -1.66973,8.12815 -5.92504,17.15599 -9.46913,20.0892 -4.65242,3.85049 -7.15957,12.07173 -7.1902,23.57747 L 132,160 h -6.8179 -6.81789 z"
       id="path59"
       inkscape:connector-curvature="0" />
    <path
       style="fill:#000000;stroke-width:1.33333325"
       d="M 46.939943,260.16842 C 35.342654,256.11766 25.253187,246.20649 16.666542,230.42999 5.4617799,209.84315 9.4657444,184.84309 25.333333,176.31605 c 5.461788,-2.93511 7.076425,-3.15895 17.999999,-2.49543 6.6,0.4009 16.2,1.33563 21.333333,2.07719 10.529292,1.52104 53.660145,1.88107 69.090505,0.57672 l 10.15952,-0.85879 8.23164,-19.47454 c 13.17143,-31.16116 34.85368,-85.834759 42.35745,-106.807868 9.4328,-26.364715 10.55175,-28.727581 16.51296,-34.870216 10.0744,-10.3809756 24.3452,-13.422805 34.90695,-7.4404398 6.83534,3.8716598 10.21949,9.7808448 10.24936,17.8968268 0.0333,9.076777 -18.00492,83.984867 -41.49439,172.314587 -11.95499,44.95549 -15.50325,50.93944 -35.95084,60.62905 L 170,261.99999 l -58,0.3172 c -53.480581,0.29248 -58.550128,0.12507 -65.060057,-2.14877 z M 26.666666,149.57533 c 0,-13.07196 2.748597,-22.49522 8.706676,-29.84983 5.244177,-6.47338 7.892193,-11.74035 9.07923,-18.05884 0.805908,-4.28976 0.761596,-4.333329 -4.407217,-4.333329 -2.871721,0 -5.580384,-0.580993 -6.019252,-1.291096 -0.997554,-1.614079 15.475646,-33.309487 17.331929,-33.34765 1.674739,-0.03443 18.133962,32.702306 17.008012,33.828255 -0.44577,0.445771 -3.11049,0.810491 -5.921602,0.810491 -4.456263,0 -5.11111,0.396068 -5.11111,3.091329 0,6.1405 -4.163967,16.90901 -8.706676,22.5165 -6.761736,8.34664 -8.246181,12.39289 -9.315604,25.39217 L 38.35126,160 h -5.842297 -5.842297 z m 45.343404,4.09133 c 0.01455,-9.14781 2.43274,-22.69627 4.910337,-27.51126 1.176011,-2.28547 4.053679,-6.40086 6.394819,-9.1453 4.015394,-4.70712 7.351438,-12.64768 7.351438,-17.498129 0,-1.604673 -1.240465,-2.17864 -4.708513,-2.17864 -2.784668,0 -4.998445,-0.755551 -5.418106,-1.849172 -0.799274,-2.082872 15.02923,-32.817494 16.901194,-32.817494 1.711377,0 17.471501,31.85649 16.520981,33.394451 -0.43245,0.699719 -2.75538,1.272215 -5.16207,1.272215 -4.24094,0 -4.42824,0.236293 -6.07699,7.666669 -2.05147,9.24528 -4.382434,14.02636 -10.113829,20.74469 -5.126831,6.00967 -7.276,13.54547 -7.276,25.5124 V 160 h -6.666666 -6.666667 l 0.01013,-6.33334 z m 46.65659,-4.09133 c 0,-13.07196 2.7486,-22.49522 8.70668,-29.84983 5.24418,-6.47338 7.89219,-11.74035 9.07923,-18.05884 0.80591,-4.28976 0.7616,-4.333329 -4.40722,-4.333329 -2.87172,0 -5.58921,-0.595281 -6.03887,-1.322847 -1.0111,-1.635994 15.47293,-33.292147 17.35154,-33.322139 1.6765,-0.02676 18.13264,32.709881 17.00802,33.834495 -0.44576,0.445771 -3.11048,0.810491 -5.9216,0.810491 -4.45627,0 -5.11111,0.396068 -5.11111,3.091329 0,6.38087 -4.23051,16.96083 -9.39397,23.49309 -6.83423,8.64596 -7.58563,10.77049 -8.70992,24.62669 L 130.29994,160 h -5.81664 -5.81664 z"
       id="path57"
       inkscape:connector-curvature="0" />
    <path
       style="fill:#000000;stroke-width:1.33333325"
       d="M 49.267413,260.85069 C 37.76077,257.74731 29.737122,250.98205 20.695245,236.75957 13.92241,226.10621 10.666666,215.87365 10.666666,205.24049 c 0,-14.41047 5.10238,-23.613 16.280216,-29.3626 6.073519,-3.12408 13.539792,-3.21872 31.81827,-0.40337 14.815189,2.28192 64.622218,2.83885 78.349588,0.87609 l 7.11475,-1.01728 5.93383,-14 c 12.13858,-28.63926 40.34802,-99.933401 46.42609,-117.333331 6.89344,-19.734169 11.74261,-28.188969 19.1915,-33.461372 10.13219,-7.1716787 20.09034,-8.3660068 29.50458,-3.5386272 7.10914,3.6453862 10.7145,9.8813932 10.7145,18.5323332 0,6.86061 -12.6785,60.933368 -29.43309,125.529647 -17.83045,68.74419 -20.80095,79.11559 -24.72424,86.32397 -6.09312,11.19507 -17.57441,19.65686 -31.84266,23.46824 -9.10394,2.43187 -111.713749,2.4289 -120.732587,-0.004 z M 26.964574,147 c 0.737191,-14.64394 2.744681,-20.59647 9.884798,-29.31005 4.024383,-4.91122 8.48396,-15.02217 8.48396,-19.235194 0,-0.616784 -1.95,-1.130613 -4.333333,-1.141842 -8.072374,-0.03803 -8.034342,-0.96432 0.752619,-18.330429 4.53606,-8.964841 8.847381,-16.110991 9.580714,-15.880333 2.195677,0.690616 16.962344,30.204144 16.159282,32.296891 -0.45468,1.184875 -2.566505,1.934288 -5.450769,1.934288 -4.035232,0 -4.708513,0.442037 -4.708513,3.091329 0,6.28824 -4.184167,16.8761 -8.882004,22.47554 -6.677646,7.95921 -8.473924,12.91389 -9.390497,25.90184 L 38.27058,160 h -5.980219 -5.98022 z m 45.634395,11.55713 c -1.313143,-2.12471 0.587229,-20.94487 2.81965,-27.92413 1.061475,-3.31852 4.311262,-8.91537 7.221747,-12.43746 4.937822,-5.97545 8.001416,-13.05438 8.018862,-18.528876 0.0057,-1.783132 -1.102834,-2.333333 -4.701077,-2.333333 -2.589681,0 -4.981994,-0.75 -5.31625,-1.666667 -0.695375,-1.907005 14.906887,-32.999999 16.559186,-32.999999 0.597436,0 4.843883,7.269912 9.436553,16.155361 8.87688,17.17411 8.95526,18.446016 1.13951,18.490888 -3.1846,0.01828 -3.706,0.718978 -4.98995,6.705856 -2.03935,9.50914 -4.380466,14.49601 -9.885633,21.05761 -5.865137,6.99064 -7.551081,12.62256 -7.5608,25.25695 L 85.333331,160 h -5.92131 c -3.256722,0 -6.322595,-0.6493 -6.813052,-1.44287 z M 118.96457,147 c 0.73719,-14.64394 2.74468,-20.59647 9.8848,-29.31005 4.02438,-4.91122 8.48396,-15.02217 8.48396,-19.235194 0,-0.616784 -1.95,-1.130613 -4.33333,-1.141842 -8.24555,-0.03885 -8.21048,-0.978236 0.68537,-18.359221 4.57304,-8.934959 8.91463,-16.062405 9.64796,-15.838771 2.18853,0.667408 16.96405,30.186937 16.15928,32.284121 -0.45468,1.184875 -2.56651,1.934288 -5.45077,1.934288 -4.03523,0 -4.70851,0.442037 -4.70851,3.091329 0,6.28824 -4.18417,16.8761 -8.882,22.47554 -6.67765,7.95921 -8.47393,12.91389 -9.3905,25.90184 L 130.27058,160 h -5.98022 -5.98022 z"
       id="path55"
       inkscape:connector-curvature="0" />
    <path
       style="fill:#000000;stroke-width:1.33333325"
       d="m 49.581668,260.58449 c -13.815825,-3.71804 -25.191367,-14.90324 -33.743626,-33.179 -4.97399,-10.62918 -6.6936509,-26.08626 -3.858077,-34.67812 3.543339,-10.73643 15.100829,-19.30536 26.118521,-19.36476 2.9875,-0.0161 11.687499,0.95012 19.333333,2.14715 15.398445,2.4108 58.755031,3.16788 76.335021,1.33296 l 10.43349,-1.08902 2.68681,-6.21018 c 10.03435,-23.19296 35.05051,-85.598327 43.91224,-109.543522 13.95469,-37.706871 15.35899,-40.62921 22.69191,-47.222141 12.56182,-11.2941557 27.65808,-11.6828961 37.72989,-0.971574 6.28604,6.685167 6.10075,13.578219 -1.18804,44.193716 -17.60477,73.946301 -42.47391,168.917451 -46.66273,178.197271 -5.62116,12.45303 -18.28129,22.48472 -33.31721,26.40006 -11.16766,2.90804 -109.656876,2.89754 -120.471532,-0.0133 z M 26.666666,150.9468 c 0,-13.09654 3.135787,-23.55985 9.644194,-32.18017 5.696004,-7.5443 8.861696,-14.52505 8.963948,-19.766632 0.05113,-2.620866 -0.615493,-3 -5.274809,-3 -2.933333,0 -5.333333,-0.609994 -5.333333,-1.355543 0,-2.018468 14.377193,-30.308174 15.872747,-31.232478 1.218904,-0.753324 15.677012,24.578295 17.071327,29.910161 0.540636,2.067396 -0.205796,2.574226 -4.304551,2.922813 l -4.958602,0.421713 -2.496918,9.863606 c -1.74366,6.888 -4.058505,11.91591 -7.673317,16.66666 -7.621494,10.01652 -8.287572,11.83149 -9.133426,24.8874 L 38.271943,160 h -5.802638 -5.802639 z m 46.666665,-2.03814 c 0,-14.09394 2.553456,-22.58544 9.204268,-30.60871 5.130251,-6.18892 7.546865,-11.46218 8.386445,-18.299953 0.373884,-3.044999 -0.08088,-3.368798 -5.257379,-3.74333 -3.116667,-0.225499 -5.666667,-0.684724 -5.666667,-1.020503 0,-1.648813 16.153746,-32.568043 17.010277,-32.55868 0.946777,0.01035 17.656385,30.754214 17.656385,32.48583 0,0.460176 -2.33977,0.836684 -5.19949,0.836684 h -5.19949 L 102.03799,106.022 c -1.63514,7.34967 -3.450436,11.52714 -6.807854,15.66667 -7.9217,9.76706 -9.834915,15.06246 -9.867522,27.31133 l -0.02928,11 h -6 -6 z m 45.333329,2.03814 c 0,-11.9991 3.04647,-23.14003 8.34509,-30.51803 7.54894,-10.51142 8.83139,-12.97831 9.75735,-18.7689 l 0.90506,-5.659872 h -6.1807 -6.18068 l 7.96801,-15.895192 c 4.38241,-8.742354 8.54254,-16.250262 9.24473,-16.684238 C 143.74949,62.664108 160,91.490698 160,94.418359 c 0,0.781365 -2.17179,1.606884 -4.8262,1.834485 -4.81363,0.412742 -4.83272,0.439539 -7.32314,10.277426 -1.74365,6.888 -4.0585,11.91591 -7.6733,16.66666 -7.70366,10.1245 -8.47982,12.23579 -9.21074,25.05504 L 130.29678,160 h -5.81506 -5.81506 z"
       id="path53"
       inkscape:connector-curvature="0" />
    <path
       style="fill:#000000;stroke-width:1.33333325"
       d="m 52.458327,261.2781 c -11.594777,-2.29393 -21.071778,-9.27085 -29.7745,-21.91983 -6.720451,-9.76784 -10.814808,-20.40329 -11.6389,-30.23305 -1.026605,-12.24533 1.333242,-20.08705 8.19063,-27.21729 8.704652,-9.051 16.334623,-10.10315 41.431108,-5.71319 10.616295,1.85704 71.840355,1.98982 79.300035,0.17199 4.48426,-1.09276 4.90374,-1.77128 13.03326,-21.08125 13.3358,-31.6764 35.54765,-87.71474 42.26037,-106.618815 8.42216,-23.718131 10.04612,-27.22751 15.31538,-33.096555 16.7129,-18.6152751 45.42428,-12.5382733 45.42428,9.614424 0,7.919544 -20.03681,89.907526 -44.84068,183.482126 -3.30453,12.46667 -7.49525,25.22131 -9.3127,28.34364 -6.99039,12.00937 -20.02639,21.03371 -34.91224,24.16844 -8.26023,1.73948 -105.758292,1.82411 -114.476043,0.0993 z M 27.101165,147.26252 c 0.94221,-14.34382 3.575621,-21.73504 10.716155,-30.07715 2.514638,-2.93779 5.234456,-7.97201 6.04404,-11.18716 2.367322,-9.401487 2.136863,-9.998212 -3.861361,-9.998212 -3.166615,0 -5.333333,-0.630308 -5.333333,-1.55149 0,-1.632485 14.123182,-28.987654 15.944851,-30.883558 0.975378,-1.015124 17.388481,28.446121 17.388481,31.21203 0,0.67266 -2.331873,1.223018 -5.181941,1.223018 -5.162796,0 -5.185372,0.0234 -6.11019,6.333332 -1.151168,7.85428 -5.18811,17.26562 -9.293806,21.66667 -5.673986,6.08216 -7.752041,12.0558 -8.449569,24.28941 L 38.296784,160 h -6.016157 -6.016156 z m 46.502793,-0.8438 c 0.678069,-14.85392 2.741845,-20.79089 10.21348,-29.38165 3.557188,-4.09 5.475041,-8.5788 7.421546,-17.370406 0.792375,-3.578842 0.667499,-3.666666 -5.213583,-3.666666 -3.313972,0 -6.025403,-0.385334 -6.025403,-0.856296 0,-1.403072 16.580548,-32.478442 17.319782,-32.460848 0.554586,0.0132 15.57777,28.249552 17.12466,32.186112 0.24445,0.622068 -1.99412,1.131032 -4.9746,1.131032 -4.84338,0 -5.49765,0.389502 -6.15908,3.666666 -2.05893,10.201296 -5.20372,18.195556 -9.235682,23.477716 -7.166964,9.38923 -7.938373,11.53578 -8.692867,24.18895 l -0.715546,12 -5.845239,0.41872 -5.84524,0.41872 z m 45.419682,1.03081 c 0.84617,-14.18308 3.57278,-21.82817 10.79368,-30.26416 2.51464,-2.93779 5.23445,-7.97201 6.04404,-11.18716 2.36732,-9.401487 2.13686,-9.998212 -3.86136,-9.998212 -3.16662,0 -5.33334,-0.630308 -5.33334,-1.55149 0,-1.632485 14.12319,-28.987654 15.94486,-30.883558 C 143.58689,62.549826 160,92.011071 160,94.77698 c 0,0.67266 -2.33188,1.223018 -5.18195,1.223018 -5.16279,0 -5.18536,0.0234 -6.11019,6.333332 -1.23989,8.4597 -4.96485,16.65196 -10.52518,23.14796 -5.35608,6.25737 -7.51602,13.66477 -7.51602,25.7758 V 160 h -6.1959 -6.19589 z"
       id="path51"
       inkscape:connector-curvature="0" />
    <path
       style="fill:#000000;stroke-width:1.33333325"
       d="m 51.999999,260.81709 c -10.046753,-2.22778 -14.254847,-4.70915 -22.08304,-13.0217 -26.3886936,-28.02141 -25.2076679,-65.93293 2.283004,-73.28557 5.200585,-1.39093 8.701268,-1.24832 22.642521,0.92243 12.612892,1.96392 23.388818,2.56325 45.824176,2.54865 16.13334,-0.0107 32.63334,-0.49208 36.66667,-1.07016 l 7.33333,-1.05108 5.10972,-12.26316 C 164.1338,129.13911 191.10897,61.048426 197.1017,44.137996 c 7.59797,-21.440126 11.16216,-27.714028 18.94863,-33.354507 11.48262,-8.3179808 25.52594,-8.1405453 34.0973,0.430815 5.42552,5.425518 6.78879,12.117981 4.6348,22.752707 -5.41096,26.715078 -46.02728,186.094319 -50.42164,197.855539 -4.98549,13.34336 -22.17158,26.38618 -38.87611,29.50374 -10.50027,1.95966 -104.247608,1.53901 -113.484681,-0.5092 z M 27.071394,157.79818 c -1.33736,-3.48509 1.803809,-26.36659 4.29872,-31.31353 1.243968,-2.46656 3.969069,-6.28689 6.05578,-8.48962 4.006033,-4.22877 7.907438,-13.51886 7.907438,-18.829335 0,-2.804425 -0.608645,-3.165697 -5.333333,-3.165697 -2.933333,0 -5.333333,-0.604136 -5.333333,-1.342526 0,-1.547212 15.963285,-31.990807 16.774574,-31.990807 0.579501,0 16.558758,31.503658 16.558758,32.646163 0,0.377943 -2.279954,0.68717 -5.066565,0.68717 h -5.066564 l -1.709908,8.278552 c -2.007573,9.71971 -4.295685,14.52836 -10.214295,21.46614 -5.126831,6.00967 -7.276,13.54547 -7.276,25.5124 V 160 h -5.37518 c -3.766912,0 -5.62798,-0.65879 -6.220092,-2.20182 z m 46.261937,-8.22285 c 0,-13.07196 2.748598,-22.49522 8.706676,-29.84983 5.441497,-6.71695 7.948769,-11.82866 9.184765,-18.7255 l 0.89606,-5.000002 h -6.203069 c -7.283037,0 -7.536284,1.513478 3.096415,-18.505059 5.92063,-11.146969 8.270417,-14.482217 9.30297,-13.204481 0.759826,0.940247 4.737312,8.425628 8.838852,16.634179 l 7.45735,14.924638 -5.53012,0.408695 -5.53012,0.408694 -1.67013,8.222136 c -1.926489,9.48416 -3.306377,12.41054 -9.34614,19.82065 -5.822301,7.14332 -6.875027,10.28999 -7.974062,23.83499 L 83.633279,160 h -5.149973 -5.149975 z m 46.222219,9.53577 c -2.42722,-2.42722 0.45774,-26.01037 4.03152,-32.9557 1.17601,-2.28547 4.05368,-6.40086 6.39482,-9.1453 4.21944,-4.94631 7.35144,-12.68523 7.35144,-18.164796 0,-2.430636 -0.77727,-2.845306 -5.33333,-2.845306 -2.93334,0 -5.33334,-0.645738 -5.33334,-1.434974 0,-1.615118 15.9183,-31.898359 16.76727,-31.898359 0.58439,0 16.56607,31.494533 16.56607,32.646163 0,0.377943 -2.27996,0.68717 -5.06656,0.68717 h -5.06658 l -1.7099,8.278552 c -2.00758,9.71971 -4.29568,14.52836 -10.2143,21.46614 -5.12683,6.00967 -7.276,13.54547 -7.276,25.5124 V 160 h -5.11111 c -2.81111,0 -5.51111,-0.4 -6,-0.8889 z"
       id="path49"
       inkscape:connector-curvature="0" />
    <path
       style="fill:#000000;stroke-width:1.33333325"
       d="m 55.817508,261.35047 c -16.266536,-2.0919 -28.727421,-12.68432 -38.774674,-32.96052 -5.261723,-10.6186 -5.674683,-12.23554 -5.691437,-22.28486 -0.01505,-9.02992 0.550569,-11.94113 3.394313,-17.47031 3.771347,-7.33274 9.488405,-11.8715 17.789008,-14.12266 4.360504,-1.18259 8.699597,-0.97988 21.465281,1.00282 12.455817,1.93459 23.236039,2.47538 48.666661,2.44135 17.96667,-0.024 34.81056,-0.48132 37.43087,-1.01619 4.56792,-0.9324 4.99845,-1.53489 10.44955,-14.62296 14.93154,-35.85057 39.25892,-97.151515 46.15065,-116.291929 8.57041,-23.80262 11.9957,-29.880738 19.88306,-35.282088 6.77775,-4.641477 9.66599,-5.548903 17.86364,-5.6124022 7.78471,-0.0603 13.61991,2.6754947 17.5857,8.2449282 6.14092,8.624126 6.20569,8.232362 -16.1983,97.957681 -19.33133,77.41969 -30.48249,118.2082 -34.18772,125.0512 -7.21053,13.31673 -21.22633,22.41149 -38.35215,24.88646 -10.44695,1.50976 -95.861472,1.57292 -107.474452,0.0795 z M 27.467493,148.33333 c 1.082324,-14.585 3.674218,-22.85062 9.183759,-29.28728 5.557036,-6.49215 8.68208,-13.3322 8.68208,-19.00323 0,-3.827737 -0.283741,-4.042822 -5.333333,-4.042822 -2.933333,0 -5.333333,-0.309227 -5.333333,-0.68717 0,-0.377942 3.650268,-7.968996 8.111708,-16.869006 l 8.111707,-16.181838 3.354551,5.869006 c 4.168143,7.292441 13.755366,26.231316 13.755366,27.172745 0,0.382944 -2.333225,0.696263 -5.184945,0.696263 -4.946088,0 -5.225504,0.230337 -6.065345,5.000002 -1.745579,9.91354 -4.860135,17.18251 -10.056744,23.47112 -6.268192,7.58538 -8.008832,13.05453 -8.018862,25.19554 l -0.0074,9 h -5.982995 -5.982994 z m 46.16881,-2 c 0.751374,-13.9075 2.787064,-19.81356 9.764084,-28.32809 4.307863,-5.25718 8.599611,-15.34681 8.599611,-20.21715 0,-1.230784 -1.873267,-1.788092 -6.010277,-1.788092 h -6.010278 l 8.020555,-16 c 4.411305,-8.8 8.49105,-16 9.066101,-16 1.211837,0 16.267231,28.209528 16.267231,30.480165 0,0.875821 -2.18715,1.519835 -5.16156,1.519835 h -5.16156 l -0.88371,6.661732 c -1.09077,8.22263 -4.724246,16.26013 -10.675209,23.61428 -4.923009,6.08381 -7.451293,14.83444 -7.451293,25.78961 v 6.60104 h -5.515011 -5.515009 z m 45.712587,1.33333 c 1.14621,-14.56768 3.56983,-21.74038 9.95814,-29.47112 5.14366,-6.22455 8.00369,-13.07086 8.01886,-19.195542 0.006,-2.612351 -0.68172,-3 -5.32589,-3 -2.93334,0 -5.33334,-0.309227 -5.33334,-0.68717 0,-0.377942 3.6536,-7.975632 8.11911,-16.883753 l 8.11909,-16.196586 3.99011,7.217088 C 152.2219,79.084642 160,94.427414 160,95.300046 c 0,0.384973 -2.33323,0.699952 -5.18495,0.699952 -4.94609,0 -5.22551,0.230337 -6.06535,5.000002 -1.74557,9.91354 -4.86013,17.18251 -10.05674,23.47112 -6.26819,7.58538 -8.00883,13.05453 -8.01886,25.19554 l -0.007,9 h -6.09163 -6.09163 z"
       id="path47"
       inkscape:connector-curvature="0" />
  </g>
  <rect
     style="fill:#000000;stroke-width:8;stroke-miterlimit:4;stroke-dasharray:none"
     id="rect843-8"
     width="71.909164"
     height="38.351551"
     x="183.35574"
     y="176.95935" />
</svg>
