<?xml version="1.0" encoding="UTF-8" standalone="no"?>
<!-- Created with Inkscape (http://www.inkscape.org/) -->

<svg
   xmlns:dc="http://purl.org/dc/elements/1.1/"
   xmlns:cc="http://creativecommons.org/ns#"
   xmlns:rdf="http://www.w3.org/1999/02/22-rdf-syntax-ns#"
   xmlns:svg="http://www.w3.org/2000/svg"
   xmlns="http://www.w3.org/2000/svg"
   xmlns:sodipodi="http://sodipodi.sourceforge.net/DTD/sodipodi-0.dtd"
   xmlns:inkscape="http://www.inkscape.org/namespaces/inkscape"
   version="1.1"
   id="svg3948"
   width="248.24242"
   height="248.24242"
   viewBox="0 0 248.24242 248.24242"
   sodipodi:docname="rear-window-defrost.svg"
   inkscape:version="0.92.5 (2060ec1f9f, 2020-04-08)">
  <metadata
     id="metadata3954">
    <rdf:RDF>
      <cc:Work
         rdf:about="">
        <dc:format>image/svg+xml</dc:format>
        <dc:type
           rdf:resource="http://purl.org/dc/dcmitype/StillImage" />
        <dc:title></dc:title>
      </cc:Work>
    </rdf:RDF>
  </metadata>
  <defs
     id="defs3952" />
  <sodipodi:namedview
     pagecolor="#ffffff"
     bordercolor="#666666"
     borderopacity="1"
     objecttolerance="10"
     gridtolerance="10"
     guidetolerance="10"
     inkscape:pageopacity="0"
     inkscape:pageshadow="2"
     inkscape:window-width="1280"
     inkscape:window-height="655"
     id="namedview3950"
     showgrid="false"
     inkscape:zoom="1.3444697"
     inkscape:cx="96.504492"
     inkscape:cy="92.541329"
     inkscape:window-x="0"
     inkscape:window-y="0"
     inkscape:window-maximized="1"
     inkscape:current-layer="svg3948" />
  <path
     inkscape:connector-curvature="0"
     id="path3970"
     d="m 66.96139,234.01278 c -3.87753,-3.69853 -6.80673,-7.71353 -9.28131,-12.72168 -3.17404,-6.42376 -3.67063,-8.39913 -4.06546,-16.17168 -0.34317,-6.75578 0.0153,-10.80376 1.51272,-17.08097 1.07937,-4.52479 1.7559,-8.56116 1.50341,-8.9697 -0.2525,-0.40854 -11.52491,-0.74281 -25.04982,-0.74281 -13.5249,0 -25.2971104,-0.27106 -26.1604504,-0.60235 -4.42059,-1.69634 -4.40708,-1.44138 -4.40708,-83.182651 0,-54.434919 0.31643,-77.787926 1.07662,-79.456374 0.59215,-1.299617 2.13995,-2.847423 3.43957,-3.439567 3.3531,-1.527775 235.8569404,-1.527775 239.2100404,0 1.29961,0.592144 2.84742,2.13995 3.43956,3.439567 0.7602,1.668448 1.07663,25.021455 1.07663,79.456374 0,81.741271 0.0135,81.486311 -4.40708,83.182651 -0.86335,0.33129 -10.42605,0.60235 -21.25046,0.60235 -14.5678,0 -19.93908,0.3149 -20.67513,1.21212 -2.28299,2.78291 -5.44631,15.93386 -5.42306,22.54546 0.0288,8.1828 1.39625,11.54882 8.0035,19.70058 5.67175,6.9976 6.25946,10.20077 2.64302,14.40512 -1.86217,2.16492 -3.13705,2.69871 -6.44549,2.69871 -3.81021,0 -4.5412,-0.45342 -9.60205,-5.95587 -11.91591,-12.95568 -15.22402,-28.10877 -10.22764,-46.84854 0.78209,-2.93334 1.42715,-5.87879 1.43349,-6.54546 0.009,-0.93334 -4.83916,-1.2087 -21.0794,-1.19727 -11.6,0.008 -21.5686,0.33544 -22.15245,0.72727 -2.3305,1.56405 -5.6548,15.13014 -5.63982,23.01546 0.0171,8.96335 1.44103,12.40457 8.55976,20.68523 2.44455,2.84355 4.44463,6.02886 4.44463,7.07846 0,5.54504 -5.82595,10.33478 -10.99315,9.03789 -3.54237,-0.88908 -12.54548,-10.88433 -15.57815,-17.29487 -4.9423,-10.44716 -5.64272,-22.62736 -2.06515,-35.91277 0.85031,-3.15766 1.17422,-6.11071 0.72008,-6.56486 -0.454,-0.45399 -10.37636,-0.70764 -22.0497,-0.56363 l -21.22425,0.26182 -2.37499,7.27273 c -1.70735,5.2283 -2.40041,9.58974 -2.46544,15.51515 -0.10432,9.5046 1.0153,12.46555 7.65478,20.24391 2.33636,2.73711 4.53454,5.87958 4.88483,6.98327 1.45625,4.58822 -3.79213,10.591 -9.25997,10.591 -1.17546,0 -4.49155,-2.31975 -7.72514,-5.40407 z M 66.52254,152.8714 c 3.1389,-9.79676 3.59207,-20.83443 1.05505,-25.69697 -0.90437,-1.73334 -2.06568,-3.15152 -2.5807,-3.15152 -0.51503,0 -2.93724,1.52728 -5.38271,3.39394 -8.96312,6.84171 -9.87717,5.72792 -21.1387,-25.7579 C 33.40843,87.492099 28.991,74.818671 28.65897,73.495768 c -0.74827,-2.981358 2.61524,-7.65467 5.50928,-7.65467 2.38281,0 50.96816,27.576791 53.3906,30.304231 2.80987,3.16364 2.03609,5.628841 -3.32063,10.579321 l -5.01759,4.63709 2.57273,4.72696 c 5.56531,10.22531 6.76501,24.58154 3.07144,36.75443 -2.649,8.73031 -4.31537,8.09886 20.59455,7.80404 l 22.0217,-0.26062 2.14491,-6.78788 c 3.19623,-10.11501 3.78182,-17.60889 1.88567,-24.13141 -1.88699,-6.49106 -3.06298,-6.77211 -8.57923,-2.05041 -4.40519,3.77068 -7.57963,4.27877 -10.22226,1.63614 -1.46276,-1.46277 -21.51493,-54.886696 -21.51493,-57.321108 0,-1.802779 4.17319,-5.890784 6.01353,-5.890784 2.720752,0 52.90832,28.789261 54.11361,31.041371 1.7669,3.301471 1.00238,5.187191 -4.01152,9.894481 l -4.97528,4.67104 2.93048,5.56019 c 5.13364,9.74037 6.23195,19.49808 3.57285,31.74201 -0.81079,3.73333 -1.73216,7.99621 -2.04748,9.47306 l -0.57329,2.6852 22.14427,-0.26096 22.14427,-0.26094 2.27978,-7.27273 c 3.23268,-10.31258 3.77936,-17.92639 1.73013,-24.09604 -0.91246,-2.74718 -2.21709,-4.99487 -2.89918,-4.99487 -0.68207,0 -3.1561,1.52304 -5.49782,3.38453 -4.51429,3.58852 -7.19411,4.1759 -9.92879,2.17626 -2.08216,-1.52251 -20.93905,-53.337946 -20.97186,-57.62701 -0.0243,-3.18192 2.72985,-6.115592 5.74144,-6.115592 1.59813,0 46.14463,25.052421 51.20456,28.796841 4.7253,3.49678 4.29913,6.643781 -1.66429,12.289941 l -4.8158,4.55961 2.81833,5.54609 c 3.46084,6.81049 4.82436,12.47528 4.83334,20.08024 0.006,4.99637 -0.68894,9.20982 -3.56328,21.60757 l -0.51321,2.21362 11.51306,-0.27423 11.51306,-0.27423 V 94.447159 28.507765 H 125.13461 17.98309 l -0.25113,64.969694 c -0.13812,35.733331 -0.0427,65.515151 0.21199,66.181821 0.35233,0.92214 5.91181,1.21212 23.23925,1.21212 h 22.77612 z"
     style="fill:#000000;stroke-width:0.96969694" />
</svg>
