<?xml version="1.0" encoding="UTF-8" standalone="no"?>
<!-- Created with Inkscape (http://www.inkscape.org/) -->

<svg
   xmlns:dc="http://purl.org/dc/elements/1.1/"
   xmlns:cc="http://creativecommons.org/ns#"
   xmlns:rdf="http://www.w3.org/1999/02/22-rdf-syntax-ns#"
   xmlns:svg="http://www.w3.org/2000/svg"
   xmlns="http://www.w3.org/2000/svg"
   xmlns:sodipodi="http://sodipodi.sourceforge.net/DTD/sodipodi-0.dtd"
   xmlns:inkscape="http://www.inkscape.org/namespaces/inkscape"
   version="1.1"
   id="svg64"
   width="546.1333"
   height="546.1333"
   viewBox="0 0 546.1333 546.1333"
   sodipodi:docname="recirc_external.svg"
   inkscape:version="0.92.5 (2060ec1f9f, 2020-04-08)">
  <metadata
     id="metadata70">
    <rdf:RDF>
      <cc:Work
         rdf:about="">
        <dc:format>image/svg+xml</dc:format>
        <dc:type
           rdf:resource="http://purl.org/dc/dcmitype/StillImage" />
        <dc:title></dc:title>
      </cc:Work>
    </rdf:RDF>
  </metadata>
  <defs
     id="defs68" />
  <sodipodi:namedview
     pagecolor="#ffffff"
     bordercolor="#666666"
     borderopacity="1"
     objecttolerance="10"
     gridtolerance="10"
     guidetolerance="10"
     inkscape:pageopacity="0"
     inkscape:pageshadow="2"
     inkscape:window-width="1280"
     inkscape:window-height="655"
     id="namedview66"
     showgrid="false"
     inkscape:zoom="0.82031255"
     inkscape:cx="273.06665"
     inkscape:cy="247.41483"
     inkscape:window-x="0"
     inkscape:window-y="0"
     inkscape:window-maximized="1"
     inkscape:current-layer="svg64" />
  <path
     inkscape:connector-curvature="0"
     id="path78"
     d="M 60.051563,398.59814 C 38.399183,393.88729 19.441973,378.99405 9.6512935,359.00251 3.6313536,346.71041 1.6782436,338.76862 1.6782436,326.58228 c 0,-12.18633 1.95311,-20.12812 7.9730499,-32.42023 10.1004995,-20.62417 30.2211495,-35.94464 52.5644295,-40.02415 3.48108,-0.63559 17.28108,-1.15561 30.66667,-1.15561 22.489287,0 24.333057,-0.14175 24.279917,-1.86667 -0.0317,-1.02782 -3.02756,-3.99927 -6.66667,-6.61231 -3.63504,-2.6101 -12.050866,-8.7301 -18.701847,-13.6 l -12.09269,-8.85435 h -29.24064 -29.24064 v -14.93334 -14.93333 h 34.42932 c 30.67845,0 34.71665,0.19782 37.06667,1.8158 1.45054,0.99869 13.610957,9.91433 27.023167,19.81254 13.4122,9.89821 25.00241,18.23334 25.75601,18.52253 1.46591,0.56251 3.18487,-0.85889 39.95909,-33.04211 l 23.96759,-20.97543 h 97.26024 97.26023 l 26.50549,31.73334 26.50549,31.73333 11.73333,0.66225 c 18.33419,1.0348 31.01271,5.14715 43.5954,14.14042 12.5439,8.96555 23.7559,23.10937 28.1511,35.51226 5.3874,15.20267 5.9368,17.90039 5.9368,29.15173 0,11.25134 -0.5494,13.94905 -5.9368,29.15173 -6.1947,17.48098 -24.0073,35.81444 -42.18032,43.41377 -16.08052,6.7243 -3.4676,6.3762 -227.65453,6.28303 -165.25685,-0.0687 -205.280867,-0.3537 -210.546537,-1.49934 z M 474.96599,369.2749 c 20.30971,-3.32601 37.04856,-20.37139 40.25966,-40.99696 3.9692,-25.49511 -14.57039,-50.84795 -40.25966,-55.05494 -3.45374,-0.5656 -12.11206,-1.03114 -19.24071,-1.03454 l -12.96117,-0.006 -26.50549,-31.73334 -26.50549,-31.73333 -83.89607,-0.27311 -83.89606,-0.2731 -5.1706,4.1502 c -9.66509,7.75773 -43.42969,37.99015 -43.82782,39.24292 -0.38542,1.21278 3.1527,4.0136 28.34992,22.44216 l 12.09269,8.84426 h 34.36064 c 25.30272,0 34.69807,-0.33743 35.64064,-1.28 0.75334,-0.75334 1.28,-4.37242 1.28,-8.79589 v -7.5159 l 17.32922,17.32923 17.32924,17.32923 -17.32924,17.32922 -17.32922,17.32924 v -9.64924 c 0,-6.08273 -0.47311,-10.12233 -1.28,-10.92922 -0.9497,-0.9497 -11.52428,-1.28 -40.97924,-1.28 h -39.69924 l -26.75585,-19.73334 c -14.71571,-10.85333 -27.2776,-19.73333 -27.91532,-19.73333 -0.63771,0 -3.62867,2.16 -6.64658,4.8 l -5.48712,4.8 h -31.07273 c -17.089997,0 -33.623127,0.48367 -36.740277,1.07483 -8.83512,1.67555 -16.53325,5.76233 -22.95986,12.18894 -17.15427,17.15427 -17.15427,43.78486 0,60.93913 6.14955,6.14954 14.20687,10.56434 22.12428,12.12243 6.56312,1.29157 399.826417,1.38863 407.691457,0.10059 z"
     style="fill:#000000;stroke-width:1.0666666"
     sodipodi:nodetypes="ssssssccscccccssscscccccsscscssscssccccccssscssscccccssscssscscssscc" />
</svg>
