<?xml version="1.0" encoding="UTF-8" standalone="no"?>
<!-- Created with Inkscape (http://www.inkscape.org/) -->

<svg
   xmlns:dc="http://purl.org/dc/elements/1.1/"
   xmlns:cc="http://creativecommons.org/ns#"
   xmlns:rdf="http://www.w3.org/1999/02/22-rdf-syntax-ns#"
   xmlns:svg="http://www.w3.org/2000/svg"
   xmlns="http://www.w3.org/2000/svg"
   xmlns:sodipodi="http://sodipodi.sourceforge.net/DTD/sodipodi-0.dtd"
   xmlns:inkscape="http://www.inkscape.org/namespaces/inkscape"
   version="1.1"
   id="svg64"
   width="546.1333"
   height="546.1333"
   viewBox="0 0 546.1333 546.1333"
   sodipodi:docname="recirc_auto.svg"
   inkscape:version="0.92.5 (2060ec1f9f, 2020-04-08)">
  <metadata
     id="metadata70">
    <rdf:RDF>
      <cc:Work
         rdf:about="">
        <dc:format>image/svg+xml</dc:format>
        <dc:type
           rdf:resource="http://purl.org/dc/dcmitype/StillImage" />
        <dc:title></dc:title>
      </cc:Work>
    </rdf:RDF>
  </metadata>
  <defs
     id="defs68" />
  <sodipodi:namedview
     pagecolor="#ffffff"
     bordercolor="#666666"
     borderopacity="1"
     objecttolerance="10"
     gridtolerance="10"
     guidetolerance="10"
     inkscape:pageopacity="0"
     inkscape:pageshadow="2"
     inkscape:window-width="1280"
     inkscape:window-height="655"
     id="namedview66"
     showgrid="false"
     inkscape:zoom="0.82031255"
     inkscape:cx="30.025671"
     inkscape:cy="144.36008"
     inkscape:window-x="0"
     inkscape:window-y="0"
     inkscape:window-maximized="1"
     inkscape:current-layer="svg64" />
  <path
     inkscape:connector-curvature="0"
     id="path78-3"
     d="M 60.01809,398.59813 C 38.36571,393.88729 19.4085,378.99405 9.61783,359.00251 3.59788,346.71041 1.64477,338.76862 1.64477,326.58228 c 0,-12.18634 1.95311,-20.12813 7.97306,-32.42023 10.10049,-20.62417 30.22114,-35.94464 52.56442,-40.02415 3.48108,-0.63559 18.61428,-1.15562 33.62933,-1.15562 22.88874,0 27.6801,-0.26618 29.65192,-1.64729 1.29352,-0.90602 20.70454,-17.70602 43.13562,-37.33333 l 40.78377,-35.68604 h 97.26288 97.2629 l 26.50549,31.73333 26.50549,31.73333 11.73333,0.66225 c 18.33419,1.03481 31.01273,5.14716 43.59543,14.14043 12.5439,8.96555 23.7559,23.10936 28.1511,35.51226 5.3874,15.20267 5.9368,17.90039 5.9368,29.15173 0,11.25134 -0.5494,13.94905 -5.9368,29.15173 -6.1947,17.48098 -24.0073,35.81444 -42.1803,43.41377 -16.08057,6.72428 -3.4676,6.37619 -227.65458,6.28302 -165.25685,-0.0687 -205.28087,-0.3537 -210.54654,-1.49934 z M 474.93252,369.2749 c 20.30969,-3.32601 37.04859,-20.37139 40.25969,-40.99696 3.9692,-25.49511 -14.5704,-50.84797 -40.25969,-55.05494 -3.45374,-0.5656 -12.11206,-1.03114 -19.24071,-1.03454 l -12.96117,-0.006 -26.50549,-31.73333 -26.50549,-31.73333 -83.64391,-0.27321 c -70.78185,-0.2312 -83.99929,-0.0403 -85.95505,1.24111 -1.27113,0.83288 -20.7356,17.63582 -43.25436,37.33988 l -40.94322,35.82554 h -31.08947 c -17.0992,0 -33.63985,0.48367 -36.75701,1.07483 -8.83512,1.67555 -16.53325,5.76233 -22.95986,12.18894 -17.15427,17.15427 -17.15427,43.78487 0,60.93914 6.14955,6.14954 14.20687,10.56434 22.12428,12.12243 6.56312,1.29157 399.82642,1.38863 407.69146,0.10058 z M 348.65299,355.90741 c -232.43533,126.81726 -116.21766,63.40863 0,0 z"
     style="fill:#000000;stroke-width:1.0666666"
     sodipodi:nodetypes="sssssscscccccsscsccsscssccccssscssssscccc" />
  <text
     xml:space="preserve"
     style="font-style:normal;font-variant:normal;font-weight:bold;font-stretch:normal;font-size:96px;line-height:1.25;font-family:sans-serif;-inkscape-font-specification:'sans-serif, Bold';font-variant-ligatures:normal;font-variant-caps:normal;font-variant-numeric:normal;font-feature-settings:normal;text-align:start;letter-spacing:0px;word-spacing:0px;writing-mode:lr-tb;text-anchor:start;fill:#000000;fill-opacity:1;stroke:none"
     x="159.69522"
     y="332.79999"
     id="text152"
     inkscape:transform-center-y="-10.971428"
     inkscape:transform-center-x="-14.628571"><tspan
       sodipodi:role="line"
       id="tspan150"
       x="159.69522"
       y="332.79999">AUTO</tspan></text>
</svg>
